<?xml version="1.0" encoding="utf-8"?>
<!-- Generator: Adobe Illustrator 26.3.1, SVG Export Plug-In . SVG Version: 6.00 Build 0)  -->
<svg version="1.1" id="Layer_1" xmlns="http://www.w3.org/2000/svg" xmlns:xlink="http://www.w3.org/1999/xlink" x="0px" y="0px"
	 viewBox="0 0 568.1 158.6" style="enable-background:new 0 0 568.1 158.6;" xml:space="preserve">
<style type="text/css">
	.st0{fill:#154E9E;}
	.st1{fill:#FFFFFF;}
	.st2{fill:#DB9C1F;}
	.st3{fill:#606060;}
	.st4{fill:none;}
</style>
<g>
	<g>
		<g>
			<path class="st0" d="M172.2,106.7v30.1h-17.4V58H204v15.6h-31.8v17.5h28.2v15.6H172.2z"/>
			<path class="st0" d="M266.7,85.3v24.1c0,16.8-10.6,27.3-29.1,27.3h-28.2V58h28.2C256.1,58,266.7,68.5,266.7,85.3z M226.8,73.6
				v47.6h10.8c7.6,0,11.8-4.4,11.8-12.1V85.7c0-7.7-4.2-12.1-11.8-12.1H226.8z"/>
			<path class="st0" d="M327.7,136.8h-17.4v-32.1h-21.1v32.1h-17.4V58h17.4V89h21.1V58h17.4V136.8z"/>
			<path class="st0" d="M356.8,58h25.3c13.9,0,24,8,24,20.4c0,8.8-4.4,14.8-11.9,17.6v0.1c8.6,2.6,13.8,9.1,13.8,19.1
				c0,13.1-10,21.6-23.7,21.6h-27.5V58z M365.9,65.6v26.9h15.8c9.2,0,15-5.2,15-13.8c0-8-6-13.1-15.5-13.1H365.9z M365.9,100.3v28.8
				h17.3c9.6,0,15.4-5.6,15.4-14.3c0-8.9-5.6-14.5-14.9-14.5H365.9z"/>
			<path class="st0" d="M413.7,98.6c0-13.2,7.6-21.7,20.3-21.7c7,0,12.5,3,16,7.9l1.3-6.7h6.7v58.6h-6.7l-1.3-6.7
				c-3.5,4.9-9.1,7.9-16,7.9c-12.7,0-20.3-8.5-20.3-21.7V98.6z M449.2,115.8V99.2c0-8.2-5.2-14.5-13.8-14.5c-8.5,0-13,6-13,13.6
				v18.3c0,7.7,4.4,13.6,13,13.6C444.1,130.2,449.2,123.9,449.2,115.8z"/>
			<path class="st0" d="M468.4,136.8V78.1h6.7l1.3,7c3.5-5.2,9.1-8.2,16.1-8.2c12.8,0,20.1,8.4,20.1,21.5v38.4h-8.8V98.3
				c0-7.6-4.4-13.6-13-13.6c-8.6,0-13.8,6.4-13.8,14.5v37.5H468.4z"/>
			<path class="st0" d="M531.4,55.6v51L557,78.1h10.2l-20,22.4l20.9,36.2h-10l-17-29.6l-9.7,10.7v18.9h-8.8V55.6H531.4z"/>
		</g>
	</g>
	<g>
		<g>
			<path class="st2" d="M125,131.2c-1.4-0.5-5-3.1-10-6.8c3.5-7.6,5.5-16,5.5-24.9c0-32.6-26.5-59.1-59.1-59.1
				c-8.7,0-16.9,1.9-24.4,5.2c-2.6-4.3-5-8.6-7.2-13C21.3,15.6,18.5,3.2,18.5,3.1C18.1,1.4,16.7,0.2,15,0c-1.7-0.1-3.3,0.8-4,2.4
				C4.1,19.4,0.4,35.1,0,49.1c-0.3,11.4,1.6,21.8,5.6,30.9c-2.1,6.1-3.3,12.6-3.3,19.4c0,32.6,26.5,59.1,59.1,59.1
				c19.1,0,36-9,46.8-23.1c8.9,2.1,14.5,3.2,14.7,3.3c0.3,0,0.5,0.1,0.8,0.1c1.7,0,3.3-1.2,3.8-2.9C128,134,127,131.9,125,131.2z"/>
			<g>
				<g>
					<g>
						<path class="st0" d="M14.7,3.9c0,0,11,50.2,59.2,90.9c0,0-8.8,8.4-4.4,17.5l13.1-9.1c0,0,34.8,29.3,41.1,31.6
							c0,0-31.1-6-62.8-17.7l-17.9,11.1l-27.4-17.3l23.6-3.8C39,107.2-19.5,88.2,14.7,3.9z"/>
					</g>
					<g>
						<path class="st0" d="M94,103c0,0-2.5-8-11.4,0.3l-8.8-8.4C73.8,94.8,94.1,81.6,94,103z"/>
					</g>
				</g>
			</g>
		</g>
	</g>
</g>
</svg>
