<?xml version="1.0" encoding="utf-8"?>
<!-- Generator: Adobe Illustrator 26.3.1, SVG Export Plug-In . SVG Version: 6.00 Build 0)  -->
<svg version="1.1" id="Layer_1" xmlns="http://www.w3.org/2000/svg" xmlns:xlink="http://www.w3.org/1999/xlink" x="0px" y="0px"
	 viewBox="0 0 649.5 172.9" style="enable-background:new 0 0 649.5 172.9;" xml:space="preserve">
<style type="text/css">
	.st0{fill:#154E9E;}
	.st1{fill:#FFFFFF;}
	.st2{fill:#DB9C1F;}
	.st3{fill:#606060;}
	.st4{fill:none;}
	.st5{font-family:'CiutadellaTRIAL-SmBd';}
	.st6{font-size:119.0127px;}
	.st7{letter-spacing:-6;}
	.st8{font-family:'CiutadellaTRIAL-Rg';}
</style>
<g>
	<g>
		<text transform="matrix(1 0 0 1 231.5092 120.6403)"><tspan x="0" y="0" class="st0 st5 st6 st7">FDH </tspan><tspan x="198.4" y="0" class="st0 st8 st6 st7">Bank</tspan></text>
	</g>
	<g>
		<path class="st0" d="M0,0v171.7l4.8-3.7c19.1-14.8,37-24.5,54.1-29.5l1.3,1.7c0.3,0.4,0.6,0.7,0.9,1.1l-0.5,0.1l4.2,3.7l-2,0.5
			l7,3.5c1.1,0.6,2.2,1,3.3,1.2l-0.7,0.8l6.3,0.1c0.1,0,0.2,0,0.3,0c2.1,0,4-0.4,5.6-1.3c0.6,0.1,1.3,0.1,1.9-0.2l0,0.9l4.7-3.2
			c0.1-0.1,0.3-0.2,0.4-0.3c0.4-0.3,0.7-0.5,1-0.8c0.4,0.3,0.9,0.5,1.5,0.6c0.6,0.1,1.2,0.2,1.8,0.3l0.3,0.1c-0.1,0.8,0,1.6,0.3,2.4
			c0.2,0.5,0.4,1,0.7,1.5c0.7,1.4,2,2.3,3.5,2.4l-0.4,0.5l6.4-0.8c1-0.1,1.8-0.5,2.6-1.2c0.2-0.1,0.3-0.3,0.5-0.5
			c0.5-0.2,1-0.5,1.4-0.9c0.2,0,0.4-0.1,0.7-0.2c0.9-0.3,1.7-0.9,2.2-1.6c1.2-0.1,2.2-0.7,2.9-1.6c0.8-1,1-2.2,0.6-3.4
			c-0.2-0.7-0.5-1.3-0.8-1.8l-1.1,0.5c0,0,0,0,0,0l1.1-0.6l0,0c-0.4-0.7-0.9-1.1-1.2-1.3c-0.1-0.1-0.2-0.3-0.3-0.4
			c-1-1.3-2.4-2-4-1.8c-0.6,0.1-1.2,0.2-1.7,0.4c-0.2-0.1-0.4-0.2-0.6-0.3c-0.1-0.3-0.3-0.6-0.4-0.8c-0.2-0.4-0.4-0.7-0.6-1.1
			c-0.2-0.3-0.4-0.7-0.6-1c-0.1-0.2-0.2-0.5-0.2-0.9c0.8,0.1,1.6,0.2,2.5,0.3c0,0,0.1,0.1,0.1,0.1l0.1,0.1c0.9,0.7,1.9,1.2,2.9,1.5
			l0,0.3l0.9-0.1l5.9,1.3l-0.9-1.8c24.6,4.6,47.7,15.6,66.8,32l5,4.3V0H0z"/>
		<path class="st1" d="M91.9,131.2c36.3,0,69.5,12.3,95,34.2V3H2.6v162.6C27.3,146.5,58.2,131.2,91.9,131.2z"/>
		<path class="st0" d="M181.6,58.3V7.5H160v49.3h-11.1V7.5h-21.5v50.8v21.5v48.3c7.4,1.7,14.6,4,21.5,6.7V78.3H160v61.4
			c7.6,3.8,14.8,7.3,21.5,12.4V79.8V58.3z"/>
		<path class="st0" d="M59.9,78.3V56.8H29.9V29h29.9V7.5H29.9H8.4V29v29.2v21.5v74.1c7.6-5,14-8.5,21.5-12.6v-63H59.9z"/>
		<path class="st0" d="M104.6,120.8c8.8,0.4,16.2-6.6,16.2-15.5V29v-8.2c0-7.4-6-13.3-13.3-13.3h-8.2H88.2H66.7V29v72.8h0v21.4
			c9.7-1.7,19.8-2.6,30-2.6C99.3,120.7,102,120.7,104.6,120.8z M88.2,101.8V29h8.3c1.6,0,2.8,1.3,2.8,2.8v65c0,2.7-2.2,5-5,5H88.2z"
			/>
		<path class="st1" d="M116.7,135.6c0.3,0,0.6-0.1,1-0.5c0.3-0.3,0.5-0.5,0.8-0.9c0.1-0.2,0.2-0.4,0.2-0.4c0.9-1.4,0.8-2.9-0.3-4.3
			c-0.5-0.7-1.1-1.2-1.6-1.5c-0.2-0.6-0.5-1.1-0.8-1.6c0.2,0,0.5,0,0.7-0.1c0.3,0,0.6-0.1,0.9-0.2l1.3-0.3l0.1-0.4
			c0.9,0,1.9-0.1,2.9-0.3l3.5-0.8l-0.6-0.4c1-0.2,1.9-0.4,2.7-0.7l3-1.1l-0.9-0.5c0.6-0.2,1.1-0.4,1.7-0.7c0.4-0.2,0.7-0.4,1.1-0.6
			c0.2-0.1,0.4-0.2,0.6-0.3c0.6-0.3,0.8-0.8,0.9-1.1c0.1-0.3,0.1-0.7-0.1-1.1c1.2-0.5,2.3-1.2,3.3-2.1c0.7-0.7,1.3-1.5,1.9-2.4
			l1.5-2.6l0,0c0.8-1.1,1.3-2.2,1.7-3.6l0.1-0.8l-0.1-0.1c0.7-0.9,1.4-1.9,1.9-2.9c1.1-2,1.7-4.1,1.8-6.2c0.1-1.7-0.2-3.3-0.9-4.7
			c-0.1-0.1-0.1-0.2-0.2-0.3l-0.2-0.3l-1.2-0.8c0-0.2-0.1-0.5-0.1-0.7c-0.2-1.2-0.5-2.4-0.9-3.5l-1.4-3.7L140,86
			c-0.5-2.8-1.7-5.4-3.5-7.5c-0.1-0.1-0.2-0.2-0.3-0.3l-2.9-2.6l0.4,3.8c0,0.1,0,0.3,0,0.4c-0.7-1-1.5-1.9-2.5-2.6
			c-0.1-0.1-0.2-0.1-0.3-0.2l-2.9-1.7l0.6,3.4c0,0.1,0,0.2,0.1,0.4c0.3,1.6,0.5,3.2,0.6,5c0.1,1.8-0.1,3.4-0.4,5
			c-0.4,2.3-1.2,4.1-2.4,5.7c-0.7,1-1.6,1.8-3,2.8c-2,1.4-3.5,2.8-4.6,4.5c-0.4,0.5-0.9,0.9-1.7,1.4l-1.6,0.9
			c-1.6,0.9-3.1,1.8-4.6,2.7c-2.5,1.5-5,3.2-7.5,5c-1.7,1.2-3.3,2.7-4.9,4l-0.2,0.1c-0.6,0.5-1.3,1-2,1.5l-0.2,0.1
			c-0.2,0.1-0.5,0.4-0.9,0.8c-0.5-0.2-1-0.3-1.5-0.5c-0.9-0.2-1.8-0.7-2.6-1.2c-1.9-1.3-3.5-2.9-4.9-4.3c-1.9-1.9-3.7-4-5.5-6
			l-0.8-1c-0.7-0.8-1.4-1.6-2.2-2.4c-1.2-1.2-2.6-1.9-3.7-2.4c-1.8-0.8-3.6-1.3-5.4-1.8l-0.2-0.1c-2.8-0.8-5-1.5-7.1-2.3
			c-0.9-0.3-1.8-0.7-2.6-1.2c-0.8-0.5-1.5-1.3-2.2-2.6c-0.9-1.6-1.4-3.4-1.4-5.4c-0.1-1.2,0-2.4,0.2-3.6c0-0.1,0-0.1,0-0.2l0.2-2.9
			L53,82.2c-1.3,0.7-2.3,1.7-2.9,2.9l-0.2-0.5l-1.7,2.5c-0.1,0.1-0.2,0.3-0.2,0.4c-0.4,1.1-0.7,2.3-0.8,3.5l-1.8,0.3l-0.3,0.9
			c-0.8,2.6-0.8,5.1,0,7.4c0.1,0.2,0.1,0.3,0.2,0.4l-1.8-1.2l0.6,3.4c0,0.1,0,0.2,0.1,0.3c0.5,2.2,1.8,4.2,3.7,5.8
			c0,0,0.1,0.1,0.1,0.1c-0.1,0.1-0.2,0.2-0.2,0.4c-0.3,0.8,0.1,1.4,0.2,1.6c0.8,1.3,1.9,2.3,3.2,3.1c0,0-0.1,0.1-0.1,0.1l-1.5,1
			l1.3,1.3c0.9,0.9,1.9,1.5,2.8,1.9l-1.3,0.8l1.4,1.4c0.5,0.5,1.1,1,1.7,1.4c-0.5,0.7-0.5,1.5,0.1,2.2c0.9,1,2,1.8,3.3,2.4
			c0.9,0.3,1.8,0.6,2.8,0.7c-0.1,0.2-0.1,0.4-0.1,0.6c-0.2,0.9,0.4,1.8,1.3,2c0.6,0.2,1.3,0.3,1.8,0.4c-0.2,0.4-0.1,0.8-0.1,1.1
			c0.1,0.3,0.3,0.8,0.9,1.1c1.2,0.6,2.6,0.9,4,1c0.8,0,1.5,0,2.3-0.2c0,0,0,0,0,0c0,0.1,0,0.2,0,0.3c-0.1,0.7,0.1,1.1,0.3,1.3
			c0.2,0.3,0.6,0.6,1.2,0.7c1,0.1,2.1,0.1,3.1-0.2c0.4-0.1,0.9-0.2,1.3-0.4c0,0,0.1,0.1,0.1,0.1c-0.9,0.4-1.8,0.7-2.7,1
			c-2.1,0.7-3.9,1.2-5.6,1.4c-1.2,0.2-2.4,0.2-3.6,0c-0.7-0.1-1.4-0.1-2-0.2l-0.8-0.1c-0.2,0-0.5,0-0.8,0.1l-2.2,0.6l1.4,1.8
			c0.9,1.1,1.9,2,3,2.8l-0.6,0.1l2.1,1.9c0.7,0.7,1.5,1.2,2.3,1.6l-1.3,0.3l3.5,1.8c1.7,0.9,3.3,1.3,5,1.2c0.2,0,0.5,0,0.7,0
			l-0.6,0.7l3.1,0.1c2.2,0,4.1-0.4,5.7-1.5c0.5,0.2,1.1,0.3,1.7,0c0.4-0.2,0.9-0.4,1.4-0.7c0.2-0.1,0.3-0.2,0.5-0.4l0,0.6l2.5-1.7
			c0.1-0.1,0.2-0.1,0.3-0.2c0.7-0.5,1.3-1.1,1.8-1.7c0.5,0.6,1.1,1,1.9,1.2c0.6,0.1,1.1,0.2,1.7,0.3l0.7,0.1c0,0,0,0,0.1,0
			c0.5,0.2,0.9,0.3,1.4,0.3c-0.1,0.2-0.2,0.4-0.3,0.6c-0.4,0.7-0.4,1.5,0,2.3l0.1,0.1c0.2,0.4,0.4,0.9,0.6,1.3
			c0.5,1.1,1.5,1.7,2.7,1.6c0.1,0,0.3,0,0.4-0.1l0.4-0.2l2.1-2.1l-1.8-0.5c0-0.2,0.1-0.4,0.1-0.6c0.1-0.1,0.2-0.2,0.3-0.3
			c0.4,0.3,0.9,0.6,1.5,0.7c0.1,0.3,0.3,0.6,0.5,0.8l-1.5,2.3l3.2-0.4c0.7-0.1,1.3-0.4,1.8-0.8c0.2-0.2,0.4-0.4,0.5-0.6
			c0.6-0.1,1.2-0.5,1.6-1.1c0.3,0,0.6-0.1,0.9-0.2c0.8-0.3,1.4-0.8,1.6-1.5c0-0.1,0.1-0.2,0.1-0.3l0.4,0c0.9,0,1.8-0.3,2.3-1
			c0.5-0.6,0.6-1.3,0.4-2c-0.2-0.6-0.4-1.1-0.7-1.6c-0.2-0.4-0.6-0.7-0.8-0.8l-0.2-0.1c-0.1,0-0.1-0.1-0.1-0.1c0,0-0.1-0.1-0.1-0.2
			c-0.1-0.1-0.2-0.3-0.2-0.4c-0.6-0.9-1.6-1.3-2.6-1.2c-0.7,0.1-1.2,0.2-1.7,0.4c-0.3,0.1-0.5,0.1-0.5,0c-0.5-0.3-1-0.5-1.5-0.8
			c-0.2-0.4-0.4-0.8-0.6-1.2c-0.2-0.4-0.4-0.7-0.6-1.1c-0.2-0.3-0.4-0.7-0.6-1c-0.4-0.7-0.5-1.6-0.3-2.6c0.1-0.4,0-0.9,0-1.3
			c1.6,0.1,2.8,0.3,3.9,0.8c0.3,0.1,0.6,0.4,1,0.6l0.1,0.1c0.8,0.6,1.7,1,2.6,1.3c0.1,0,0.2,0.1,0.3,0.1l0.6,0.1"/>
		<path class="st2" d="M143.8,93c0-0.1-0.1-0.1-0.1-0.2c0,0,0,0-0.1,0c-0.2,2.5-1.4,4.5-2.8,6.5c1.2-2.8,1.7-5.8,1.2-8.9
			c-0.1-1.1-0.4-2.1-0.8-3.1c-1,2.6-1.9,5.1-3.2,7.6c0.1-0.5,0.3-1.1,0.4-1.6c0.4-1.9,0.6-3.7,0.4-5.6c-0.3-3.1-1.4-5.8-3.4-8.2
			c0,0-0.1-0.1-0.2-0.2c0.4,3.9,0.4,7.6-0.8,11.3c0,0.1,0,0.1-0.1,0.1c0-0.3,0-0.6,0.1-0.9c0.1-2.4,0-4.7-0.8-7
			c-0.6-1.8-1.6-3.3-3.1-4.4c-0.1-0.1-0.2-0.1-0.3-0.2c0,0.2,0.1,0.3,0.1,0.5c0.4,1.7,0.6,3.5,0.6,5.3c0.1,1.8-0.1,3.5-0.4,5.3
			c-0.4,2.3-1.3,4.4-2.7,6.3c-0.9,1.3-2.1,2.2-3.4,3.1c-1.6,1.1-3.1,2.5-4.2,4.1c-0.6,0.8-1.3,1.3-2.2,1.8c-2.1,1.2-4.1,2.4-6.2,3.6
			c-2.5,1.5-5,3.2-7.4,4.9c-1.7,1.2-3.3,2.7-4.9,4.1c-0.7,0.6-1.6,1.2-2.4,1.7c-0.2,0.1-0.8,0.8-1.4,1.3c-0.8-0.3-1.5-0.5-2.3-0.7
			c-1.1-0.3-2.1-0.8-3.1-1.5c-1.9-1.3-3.5-2.9-5.1-4.5c-2.2-2.2-4.3-4.6-6.4-7c-0.7-0.8-1.4-1.6-2.1-2.3c-0.9-0.9-2-1.5-3.2-2.1
			c-1.8-0.8-3.6-1.3-5.5-1.8c-2.4-0.7-4.8-1.4-7.2-2.3c-1-0.4-1.9-0.8-2.8-1.4c-1.2-0.8-2-1.9-2.7-3.1c-1.1-1.9-1.5-3.9-1.6-6.1
			c-0.1-1.3,0-2.6,0.2-3.8c0-0.1,0-0.1,0-0.2c-1.3,0.7-2.2,1.8-2.7,3.1c-0.5,1.3-0.5,2.7-0.3,4.1c-0.6-0.9-0.8-1.9-1.2-3
			c-0.1,0.1-0.1,0.1-0.1,0.2c-0.4,1.1-0.7,2.2-0.7,3.4c-0.1,2.2,0.5,4.3,1.2,6.4c0.1,0.3,0.2,0.5,0.3,0.8c0,0.1,0,0.2,0,0.3
			c-0.1-0.1-0.2-0.1-0.2-0.2c-0.7-0.7-1.2-1.5-1.7-2.3C48,95.2,47.5,94,47,92.8c0-0.1-0.1-0.2-0.1-0.2c0,0,0,0-0.1,0
			c-0.7,2.1-0.8,4.3,0,6.4c0.8,2.1,2.1,3.8,3.9,5.2c0,0,0,0,0,0.1c-0.3-0.1-0.7-0.2-1-0.3c-0.3-0.1-0.7-0.3-1-0.4
			c-0.3-0.1-0.6-0.3-1-0.5c-0.3-0.2-0.6-0.4-1-0.5c-0.3-0.2-0.6-0.4-1-0.6c0,0.1,0,0.2,0.1,0.3c0.5,2.1,1.6,3.7,3.2,5.1
			c0.8,0.7,1.7,1.3,2.7,1.8c0.1,0,0.1,0.1,0.2,0.2c-0.1,0-0.2,0-0.3,0c-0.7-0.1-1.4,0-2.1,0.2c-0.3,0.1-0.3,0.1-0.2,0.4
			c0.8,1.3,2,2.2,3.3,2.9c0.8,0.4,1.6,0.7,2.5,1c0.1,0,0.1,0.1,0.2,0.1c-1.2,0.1-2.3,0.5-3.3,1.2c1.9,1.9,4.3,2.5,6.9,2.6
			c-1.3,0.4-2.7,0.8-3.9,1.5c1.1,1.1,2.5,1.8,4,2.2c-0.1,0-0.1,0-0.2,0c-0.7,0.1-1.3,0.5-1.8,1c-0.2,0.2-0.2,0.3,0,0.4
			c0.7,0.9,1.6,1.5,2.7,1.9c1.6,0.6,3.2,0.7,4.9,0.7c0.1,0,0.2,0,0.3,0c-0.1,0-0.1,0.1-0.2,0.1c-0.8,0.5-1.2,1.2-1.4,2.1
			c0,0.2,0,0.2,0.2,0.3c1.1,0.3,2.3,0.4,3.5,0.5c0.6,0,1.3,0.1,1.9,0.1c0.1,0,0.1,0,0.2,0.1c-0.3,0.1-0.7,0.2-1,0.3
			c-0.7,0.2-1.3,0.7-1.7,1.3c-0.1,0.2-0.1,0.3,0.1,0.4c1.1,0.5,2.2,0.8,3.4,0.8c1.5,0,3-0.2,4.4-0.7c0.1,0,0.1,0,0.3-0.1
			c-0.5,0.6-0.7,1.3-0.9,1.9c-0.1,0.3-0.1,0.6-0.1,0.8c0,0.2,0,0.3,0.2,0.3c0.9,0.1,1.8,0.1,2.6-0.1c0.8-0.2,1.6-0.5,2.5-0.9
			c0.1,0.3,0.2,0.5,0.2,0.7c0,0.3,0.2,0.3,0.4,0.3c0.8-0.1,1.7-0.1,2.5-0.1c0.2,0,0.4,0.1,0.6,0.2c0.1,0.1,0.1,0.2,0.2,0.2
			c-0.4,0.3-0.8,0.6-1,0.7c-1.8,0.9-3.7,1.7-5.7,2.4c-1.9,0.7-3.9,1.2-5.9,1.5c-1.3,0.2-2.6,0.2-4,0c-0.9-0.1-1.9-0.2-2.8-0.3
			c-0.1,0-0.2,0-0.3,0c1.3,1.7,2.9,2.8,4.9,3.5c2,0.7,4,0.6,6,0.2c0,0,0,0,0,0.1c-0.1,0.1-0.2,0.2-0.4,0.3c-1,0.6-2.2,0.9-3.3,0.8
			c-0.8,0-1.7-0.1-2.5-0.2c-0.1,0-0.2,0-0.3,0c2.4,2.1,5.1,2.8,8.2,2.3c0,0,0,0.1,0,0.1c-1.3,0.4-2.6,0.7-4,1.1
			c1.4,0.7,2.8,1.1,4.3,1.1c1.5,0,2.9-0.5,4.2-1.3c-0.2,0.7-0.4,1.4-0.9,2c2.6,0.1,4.9-0.7,6.6-2.7c0,0.1-0.1,0.2-0.1,0.3
			c-0.1,0.2-0.2,0.5-0.3,0.7c0,0.1-0.1,0.3,0,0.4c0.1,0.1,0.3,0.1,0.4,0.1c0.4-0.2,0.8-0.4,1.2-0.6c1-0.7,1.7-1.6,2.3-2.6
			c0-0.1,0.1-0.1,0.1-0.2c0.3,0.5,0.4,0.9,0.4,1.5c0.2-0.1,0.3-0.2,0.4-0.3c0.8-0.5,1.4-1.2,1.9-2c0.2-0.4,0.5-1.5,0.5-2.1
			c0.6,0.5,0.9,1.1,1.1,1.9c0.2,0.8,0.7,1.3,1.4,1.5c0.8,0.2,1.5,0.3,2.3,0.4c0.1,0,0.2,0,0.2,0c0.6,0.3,1.3,0.3,2,0.1
			c0.1,0,0.3,0,0.4,0.1c0.2,0.1,0.4,0.3,0.6,0.4c0.3,0.2,0.3,0.4,0.1,0.7c-0.1,0.2-0.3,0.5-0.5,0.7c-0.2,0.3-0.4,0.7-0.6,1
			c-0.2,0.3-0.2,0.7,0,1c0.2,0.5,0.4,0.9,0.6,1.4c0.3,0.5,0.7,0.8,1.3,0.8c0,0,0.1,0,0.1,0c0,0,0,0,0.1-0.1
			c-0.4-0.1-0.6-0.3-0.6-0.7c0-0.2,0.1-0.5,0.2-0.7c0.1-0.2,0.1-0.4,0-0.6c0-0.1,0-0.2,0-0.3c0.3-0.4,0.6-0.8,1-1.1
			c0.6-0.4,1.1-0.4,1.7,0.1c0.3,0.3,0.7,0.4,1.1,0.5c0.5,0.1,0.8,0.3,0.9,0.8c0.1,0.4,0.4,0.6,0.7,0.7c0.4,0.1,0.4,0.3,0.3,0.7
			c-0.1,0.1-0.2,0.3-0.3,0.4c0.4-0.1,0.7-0.2,1-0.4c0.3-0.2,0.4-0.6,0.5-0.9c0-0.4,0-0.7,0-1c0.3,0,0.5,0,0.8-0.1
			c0.2,0,0.3,0.1,0.3,0.3c0,0.2-0.1,0.3-0.2,0.5c0,0.1-0.1,0.2-0.1,0.2c0.5-0.1,1.1-0.7,1.1-1.3c0-0.2,0-0.5,0-0.7
			c0-0.5-0.3-0.9-0.6-1.3c-0.5-0.5-1.1-0.7-1.8-1c-0.1,0-0.2-0.1-0.3-0.2c-0.3-0.5-0.8-0.6-1.3-0.5c-0.4,0.1-0.8,0.2-1.2,0.4
			c-0.4,0.1-0.7,0.2-1,0c-0.6-0.3-1.2-0.7-1.7-1.1c-2.1-1.6-3.3-3.9-4-6.4c-0.1-0.3-0.1-0.7,0-1.1c0-0.1,0.1-0.3,0.1-0.4
			c0.1,0.3,0.3,0.7,0.4,1c0.6,1.6,1.3,3.2,2.4,4.6c0.5,0.6,1,1.1,1.8,1.3c0.7,0.1,1.4,0.1,2.1-0.1c0.2,0,0.4-0.1,0.5-0.1
			c0.5-0.1,1,0.4,0.9,0.9c0,0.2-0.1,0.3-0.1,0.5c0.2,0,0.3,0,0.4,0c0.4,0,0.7,0.2,0.9,0.5c0.1,0.1,0.2,0.1,0.3,0.2
			c0.8,0.4,1.7,0.8,2.5,1.2c0.3,0.1,0.5,0.4,0.7,0.6c0.2,0.2,0.3,0.5,0.1,0.8c-0.1,0.3-0.3,0.6-0.4,0.9c0.4,0.2,1.3-0.1,1.5-0.6
			c0.1-0.2,0.2-0.4,0.3-0.6c0.4-0.8,0.2-1.6-0.5-2.3c-0.2-0.2-0.5-0.4-0.7-0.6c0,0,0,0,0,0c0.2,0.1,0.5,0.2,0.7,0.4
			c0.6,0.3,1.3,0.7,2,0.8c0.4,0.1,0.6,0.6,0.3,0.9c-0.1,0.1-0.2,0.2-0.2,0.3c0.7,0,1.4-0.4,1.2-1.1c-0.1-0.5-0.4-0.9-0.6-1.3
			c-0.1-0.1-0.3-0.2-0.4-0.3c-0.2-0.1-0.4-0.3-0.5-0.4c-0.2-0.2-0.3-0.4-0.4-0.6c-0.3-0.4-0.7-0.6-1.1-0.5c-0.5,0.1-0.9,0.2-1.4,0.3
			c-0.6,0.2-1.1,0.2-1.7,0c-0.6-0.3-1.2-0.6-1.8-1c-0.2-0.1-0.3-0.3-0.4-0.6c-0.1-0.4-0.3-0.7-0.5-1c-0.4-0.7-0.8-1.4-1.2-2.1
			c-0.6-1.1-0.7-2.4-0.5-3.6c0.1-0.5-0.2-1.5-0.1-2.1c0,0,0.1,0,0.1-0.1c0.5-0.3,1-0.4,1.5-0.4c1.5,0.1,3.1,0.3,4.5,0.9
			c0.5,0.2,0.9,0.5,1.3,0.9c0.7,0.5,1.4,0.9,2.2,1.1c0.1,0,0.1,0,0.3,0.1c-0.5-1.1-1.2-2-1.8-3c0.1,0,0.2,0,0.2,0.1
			c1,0.5,1.9,0.9,2.9,1.3c0.7,0.2,0.9,0.7,0.7,1.4c0,0.1,0,0.2,0,0.3c0.1,0,0.2,0,0.3,0c0.2-0.2,0.5-0.5,0.7-0.8
			c0.1-0.1,0.1-0.2,0.1-0.3c0.6-0.9,0.4-1.8-0.2-2.6c-0.4-0.5-0.9-1-1.5-1.4c-0.1-0.1-0.2-0.2-0.3-0.4c-0.6-2-2.1-3.3-4.1-3.8
			c-0.3-0.1-0.6-0.1-1-0.2c0.8-0.1,1.6-0.2,2.3,0c1.3,0.2,2.6,0.3,3.9,0.2c0.4,0,0.8-0.1,1.1-0.2c0,0,0-0.1,0-0.1
			c-0.2-0.2-0.5-0.4-0.7-0.6c0,0,0,0,0-0.1c1.5,0,3,0.1,4.6-0.3c-0.5-0.3-0.9-0.5-1.3-0.8c1.2-0.1,2.3-0.2,3.4-0.3
			c1.1-0.1,2.2-0.3,3.3-0.7c-0.6-0.3-1.1-0.7-1.7-1c0,0,0,0,0-0.1c0.2,0,0.3,0,0.5,0c1.7,0,3.4-0.5,5-1.2c0.6-0.3,1.1-0.6,1.6-0.9
			c0.2-0.1,0.2-0.2,0.1-0.3c-0.3-0.5-0.7-0.9-1.3-1.2c0,0-0.1,0-0.2-0.1c2-0.4,3.7-1.1,5.1-2.5c0.6-0.6,1.1-1.3,1.6-2.1
			c-0.6,0.1-1.2,0.2-1.8,0.1c2.4-1.3,4.1-3.2,4.7-5.9c0,0,0,0-0.1-0.1c-0.5,0.3-1,0.6-1.5,0.9c0,0,0,0,0-0.1
			c0.1-0.1,0.1-0.2,0.2-0.2c1.4-1.4,2.6-2.9,3.5-4.6c0.9-1.8,1.5-3.6,1.7-5.6C144.7,95.6,144.4,94.3,143.8,93z"/>
	</g>
</g>
</svg>
