<?xml version="1.0" encoding="utf-8"?>
<!-- Generator: Adobe Illustrator 26.3.1, SVG Export Plug-In . SVG Version: 6.00 Build 0)  -->
<svg version="1.1" id="Layer_1" xmlns="http://www.w3.org/2000/svg" xmlns:xlink="http://www.w3.org/1999/xlink" x="0px" y="0px"
	 viewBox="0 0 233.2 265.1" style="enable-background:new 0 0 233.2 265.1;" xml:space="preserve">
<style type="text/css">
	.st0{fill:#154E9E;}
	.st1{fill:#FFFFFF;}
	.st2{fill:#DB9C1F;}
	.st3{fill:#606060;}
	.st4{fill:none;}
</style>
<g>
	<path class="st2" d="M179,15.2l-113.4,0l0,0c-2.6,0.4-4.8,1.9-6.4,4c-0.3,0.4-0.6,0.8-0.8,1.2c-0.1-0.9-0.3-1.7-0.4-2.6
		c-0.4-2.6-0.8-5.2-1.2-7.9c-0.3-2-1.9-3.5-3.9-3.8c-2-0.3-3.9,0.7-4.8,2.5c-1.8,3.6-3.1,7.1-4.1,10.7c-1.8-5.5-3.4-10.9-4.7-15.8
		c-0.5-2-2.4-3.5-4.5-3.5c0,0,0,0,0,0c-2.1,0-3.9,1.4-4.5,3.4c-1.9,7.1-2.6,14.3-2.3,21.4c-0.7-0.2-1.4-0.2-2.2-0.1
		c-2,0.4-3.5,2.1-3.7,4.1C21.6,34.3,22,39.4,23,44.1c-0.6,0-1.3,0.1-1.9,0.4c-1.8,0.8-2.9,2.6-2.8,4.5c0.3,5.2,2,10.4,4.2,15
		c-1.3,0.7-2.2,2.1-2.3,3.6c-0.5,5.4,2,12.7,6,18.8c-0.3,0.4-0.5,0.8-0.7,1.2c-0.5,1.4-0.4,2.9,0.5,4.2l17.6,26.7
		c5.3,8,11.5,14.8,18.5,20.3c0.9,0.7,1.9,1.5,3,2.2c-7.4-0.8-12.8-1.3-15.4,2.4c-0.7,1-2.3,3.4-1.8,6.2l0.2,2.5
		c0.3,3.1,1.4,5.9,3.2,8.1c3.4,4.2,8.3,6,14,6.2l0,11.1c0,6.5,5.8,11.8,12.9,11.8H179c7.1,0,12.9-5.3,12.9-11.8V27
		C191.9,20.5,186.1,15.2,179,15.2z"/>
	<path class="st0" d="M172.8,160.8C172.8,160.8,172.8,160.8,172.8,160.8c0.2-3.6-4.2-6.9-7.3-3.5c-3.5-1.5-5.8,2.2-6.5,2.8
		c-3-1-4.7-1.6-7.7-2.5c-0.4-0.6-0.7-1.4-0.8-2.1c-0.1-1-0.9-1.8-1.9-2c-5.4-0.9-9.6-2.6-13.9-5.1c-5.8-3.4-7.3-11.2-3-16.4
		c0.3-0.4,0.7-0.8,1.1-1.2c1.7-1.8,3.9-2.9,6.3-3.2c11.8-1.6,12.5,2.2,16.9,2.4c-1.6-0.7-2.8-2.7-4.1-5.6c5.8,0.4,8.9,1.8,5.9,5.1
		c7.7-5,1.5-8-2.6-11.3c-0.4-5.7-21.6-9.5-38.2-2.2c2.5-2.2,6.4-4.4,12.2-5.4c12.6-17.7,37.3-28.3,36-57
		c-2.3,7.4-5.8,14.2-13.6,19.2c4.5-9.9,4.3-19.2,1-25.3c0.7,8.5-2.9,17.9-6.8,24.1c0-9.1-1.1-17.2-6.5-23.8
		c1.7,9.1,0.5,18.2-1.5,26.6c-0.6-7.1-3.2-12.6-7.6-16.4c0.7,5.8,1,11.7-0.1,18c-0.8-3.3-3-6.3-6.5-9c0,3.2,0,6.3-0.4,9.7
		c-2.2-1.1-4.2-1.7-6.3-2c-0.1,2,0.3,4.5,1.3,7.6c-1.9-0.3-3.6-0.4-5,0.1c-0.4,1.3-0.4,3.3,0.4,5.9c-3.1,1.9-3.8,3.1-4.7,4.5
		c-0.9,1.3-1.8,2.7-2.1,4.7c-0.5,3.6,0.7,6.1,3.1,10.4c0.7,1.5,2,4.2,2.4,6.7c-11.4-10.8-14.3-22.8-16.8-34.9
		c-20.7-17.2-28-38-27.8-60.9c-7.6,0.2-8.9,10.9-4.6,31.2c-7.5-12.5-8.3-26.2-10.7-40.6c-5.3,10.6-7.6,22.9-1.3,38.8
		C44.3,34.4,38.1,16.8,34.6,3.1c-4.1,15.6-2.9,32.8,6.7,50.8c-6.9-7.3-10.5-17.8-14.8-25.9c-1.1,11.7,2.3,21.2,6.2,29.9
		c-3.6-2.4-7.5-7.4-10.1-10.3c0.4,7.7,4.6,16.5,9.5,22.6c-2.3-0.6-6.1-3.2-7.7-3.1c-0.5,5.5,3.3,14.7,8.8,20.5
		c-1.3,0.3-2.5,0.7-3.8,1l17.9,27c4.9,7.4,10.8,14,17.8,19.4c8.3,6.5,17,10.6,26.2,8.6c-5.2,2.5-9,2.5-15.7,2.8
		c-8.9,0.1-20.4-2.9-22.2-0.3c-0.7,1-1.3,2-1,2.9l0.3,2.8c0.2,2.1,0.9,4.1,2.2,5.7c7.1,8.8,24.9,3.8,47.6-7.5
		c-2.3,1.7-4.7,3.4-7,5.1c4.2,0.7,8.6,1.2,14,0.4c-0.7-1.7-1.4-3.4-2.1-5.1c1.5,2.3,3,4.6,4.4,6.9c1.7,2.6,3.9,4.9,6.5,6.8l3.9,2.8
		c1.5,1.2,3.7,0.8,4.7-0.9l0,0l5.4-0.2c0.5,0,1,0,1.5,0.1c0.2,0.2,0.4,0.3,0.6,0.5c0.4,0.4,0.8,0.8,1.2,1.2c0.1,0.1,0.1,0.1,0.2,0.1
		c-3,3.9-4.5,7.3,0.3,8.8c-0.9-2.4-0.4-4.6,0.9-6.4c1.5-2.1,4.2-3.1,6.7-2.7c1.3,0.2,2.6,0.8,4.3,2.2c0.6,0.5,1,1.2,0.6,0.1
		c-0.6-1.8-2.3-3.3-4.1-3.5c2.7-0.3,5.3,0.5,6.9,2.5c-0.2-0.4-0.3-0.9-0.4-1.4c-0.3-0.6-0.6-1.3-1.1-1.8c-0.5-0.6-1.2-1-2-1.2
		c-1.3-0.4-2.8-0.5-4.2-0.3c-1.4,0.3-2.8,0.7-4.2,1.1c-0.4,0.1-0.9,0.2-1.3,0.2c-0.6-0.5-1.2-1-1.9-1.5c0.4-0.8,0.4-1.8,0.2-2.6
		c-0.4-1.3-1.3-2.2-2.3-3c-1.3-0.9-2.7-1.4-4.1-2.1c-0.9-0.4-1.7-0.8-2.6-1.3c0.4,0.1,0.8,0.2,1.2,0.3c1.2,0.3,2.4,0.6,3.6,1
		c0.8,0.2,1.5,0.5,2.2,0.7c0.3,0.2,0.6,0.3,0.9,0.5c1.6,1.1,3.2,2.4,4.9,3.4c1.6,0.9,3.3,1.5,5.1,1.7c1.3,0.1,2.9,0,3.8-0.9
		c1.5,0,3.6,0.7,7,3c-7.4,9.6-4.2,10.2-0.6,10.2c-1.9-0.7-4.4-2.7-0.4-4.4c0.4-0.1,0.7-0.2,1.1-0.4c0.6-0.2,1.1-0.5,1.4-1
		c1.2-1.9,3.1-3.7,5.7-5.3c4.1-3.3,8-2.6,7.8,0.6c1.1-1.7,0.9-4-4.5-5C169.8,155.8,172.1,158.3,172.8,160.8z"/>
	<g>
		<g>
			<path class="st0" d="M9.8,247.4v17H0V220h27.7v8.8H9.8v9.9h15.9v8.8H9.8z"/>
			<path class="st0" d="M63.1,235.4V249c0,9.5-6,15.4-16.4,15.4H30.8V220h15.9C57.2,220,63.1,225.9,63.1,235.4z M40.6,228.8v26.9
				h6.1c4.3,0,6.6-2.5,6.6-6.8v-13.2c0-4.3-2.4-6.8-6.6-6.8H40.6z"/>
			<path class="st0" d="M97.6,264.4h-9.8v-18.1H75.9v18.1H66V220h9.8v17.5h11.9V220h9.8V264.4z"/>
			<path class="st0" d="M113.9,220h14.3c7.8,0,13.5,4.5,13.5,11.5c0,4.9-2.5,8.3-6.7,9.9v0.1c4.9,1.5,7.8,5.1,7.8,10.8
				c0,7.4-5.6,12.2-13.4,12.2h-15.5V220z M119.1,224.3v15.2h8.9c5.2,0,8.5-2.9,8.5-7.8c0-4.5-3.4-7.4-8.7-7.4H119.1z M119.1,243.8
				v16.2h9.7c5.4,0,8.7-3.2,8.7-8.1c0-5-3.2-8.2-8.4-8.2H119.1z"/>
			<path class="st0" d="M146.1,242.9c0-7.4,4.3-12.2,11.4-12.2c3.9,0,7,1.7,9,4.5l0.7-3.8h3.8v33.1h-3.8l-0.7-3.8
				c-2,2.8-5.1,4.5-9,4.5c-7.2,0-11.4-4.8-11.4-12.2V242.9z M166.1,252.6v-9.3c0-4.6-2.9-8.2-7.8-8.2c-4.8,0-7.3,3.4-7.3,7.6v10.4
				c0,4.3,2.5,7.6,7.3,7.6C163.2,260.7,166.1,257.2,166.1,252.6z"/>
			<path class="st0" d="M176.9,264.4v-33.1h3.8l0.7,3.9c2-2.9,5.1-4.6,9.1-4.6c7.2,0,11.4,4.7,11.4,12.1v21.7H197v-21.7
				c0-4.3-2.5-7.6-7.3-7.6c-4.9,0-7.8,3.6-7.8,8.2v21.2H176.9z"/>
			<path class="st0" d="M212.5,218.6v28.8l14.5-16h5.8L221.4,244l11.8,20.4h-5.6l-9.6-16.7l-5.5,6v10.7h-4.9v-45.8H212.5z"/>
		</g>
	</g>
</g>
</svg>
