<?xml version="1.0" encoding="utf-8"?>
<!-- Generator: Adobe Illustrator 26.3.1, SVG Export Plug-In . SVG Version: 6.00 Build 0)  -->
<svg version="1.1" id="Layer_1" xmlns="http://www.w3.org/2000/svg" xmlns:xlink="http://www.w3.org/1999/xlink" x="0px" y="0px"
	 viewBox="0 0 535.3 145.9" style="enable-background:new 0 0 535.3 145.9;" xml:space="preserve">
<style type="text/css">
	.st0{fill:#154E9E;}
	.st1{fill:#FFFFFF;}
	.st2{fill:#DB9C1F;}
	.st3{fill:#606060;}
	.st4{fill:none;}
</style>
<g>
	<g>
		<path class="st2" d="M124,11.8l-87.5,0l0,0c-2,0.3-3.7,1.5-4.9,3.1c-0.2,0.3-0.4,0.6-0.6,0.9c-0.1-0.7-0.2-1.3-0.3-2
			c-0.3-2-0.6-4-1-6.1c-0.3-1.5-1.5-2.7-3-2.9c-1.5-0.2-3,0.6-3.7,1.9c-1.4,2.8-2.4,5.5-3.1,8.3c-1.4-4.2-2.7-8.4-3.6-12.2
			C15.8,1.1,14.4,0,12.8,0c0,0,0,0,0,0c-1.6,0-3,1.1-3.4,2.7c-1.4,5.5-2,11-1.7,16.5C7,19,6.4,19,5.9,19.1c-1.5,0.3-2.7,1.6-2.8,3.1
			C2.6,26.5,2.9,30.4,3.7,34c-0.5,0-1,0.1-1.5,0.3c-1.4,0.6-2.3,2-2.2,3.5c0.2,4,1.5,8,3.2,11.6c-1,0.6-1.7,1.6-1.8,2.8
			C1.1,56.3,2.9,61.9,6,66.6c-0.2,0.3-0.4,0.6-0.5,0.9c-0.4,1.1-0.3,2.3,0.4,3.2l13.6,20.6c4.1,6.1,8.9,11.4,14.3,15.6
			c0.7,0.6,1.5,1.1,2.3,1.7c-5.7-0.6-9.9-1-11.9,1.9c-0.5,0.7-1.8,2.6-1.4,4.8l0.2,1.9c0.2,2.4,1.1,4.5,2.5,6.3
			c2.6,3.3,6.4,4.7,10.8,4.8l0,8.5c0,5,4.5,9.1,10,9.1H124c5.5,0,10-4.1,10-9.1v-116C133.9,15.8,129.5,11.8,124,11.8z"/>
		<path class="st0" d="M119.2,124C119.2,124,119.2,124,119.2,124c0.2-2.8-3.2-5.4-5.6-2.7c-2.7-1.2-4.5,1.7-5,2.2
			c-2.3-0.7-3.7-1.2-5.9-2c-0.3-0.5-0.6-1.1-0.6-1.6c-0.1-0.8-0.7-1.4-1.5-1.5c-4.2-0.7-7.4-2-10.8-3.9c-4.5-2.6-5.6-8.7-2.3-12.6
			c0.3-0.3,0.5-0.6,0.8-0.9c1.3-1.4,3-2.2,4.8-2.5c9.1-1.3,9.7,1.7,13,1.9c-1.2-0.5-2.2-2.1-3.1-4.3c4.5,0.3,6.9,1.4,4.5,3.9
			c5.9-3.8,1.1-6.2-2-8.7c-0.3-4.4-16.6-7.3-29.5-1.7c1.9-1.7,4.9-3.4,9.4-4.2c9.7-13.6,28.8-21.8,27.8-44
			c-1.8,5.7-4.5,11-10.5,14.8c3.5-7.6,3.3-14.8,0.7-19.5c0.5,6.6-2.3,13.8-5.3,18.6c0-7-0.9-13.3-5-18.4c1.3,7,0.4,14-1.2,20.5
			c-0.5-5.5-2.4-9.7-5.9-12.7c0.6,4.5,0.8,9.1-0.1,13.9c-0.6-2.5-2.3-4.9-5-7c0,2.5,0,4.9-0.3,7.5c-1.7-0.8-3.3-1.3-4.8-1.5
			c0,1.6,0.2,3.5,1,5.8c-1.4-0.2-2.8-0.3-3.8,0.1c-0.3,1-0.3,2.5,0.3,4.6c-2.4,1.4-2.9,2.4-3.6,3.4c-0.7,1-1.4,2.1-1.6,3.6
			c-0.4,2.8,0.5,4.7,2.4,8c0.5,1.1,1.5,3.2,1.9,5.2c-8.8-8.3-11-17.6-13-26.9C43.5,48,37.9,32,38,14.3c-5.8,0.1-6.9,8.4-3.6,24.1
			c-5.8-9.6-6.4-20.2-8.3-31.3c-4.1,8.2-5.9,17.6-1,29.9C20.1,26.5,15.3,13,12.6,2.4c-3.1,12-2.3,25.3,5.2,39.2
			C12.5,36,9.7,27.9,6.3,21.7C5.5,30.7,8.1,38,11.1,44.7c-2.8-1.9-5.8-5.7-7.8-7.9c0.3,5.9,3.6,12.7,7.4,17.4
			c-1.7-0.5-4.7-2.5-5.9-2.4c-0.4,4.3,2.5,11.3,6.8,15.8c-1,0.3-1.9,0.5-2.9,0.8l13.8,20.8c3.8,5.7,8.3,10.8,13.7,15
			c6.4,5,13.1,8.2,20.2,6.6c-4,1.9-7,1.9-12.1,2.1c-6.9,0.1-15.7-2.2-17.1-0.2c-0.5,0.7-1,1.6-0.8,2.2l0.2,2.2
			c0.2,1.6,0.7,3.2,1.7,4.4c5.5,6.8,19.2,2.9,36.7-5.8c-1.8,1.3-3.6,2.6-5.4,4c3.2,0.5,6.6,0.9,10.8,0.3c-0.5-1.3-1.1-2.6-1.6-3.9
			c1.1,1.8,2.3,3.5,3.4,5.3c1.3,2,3,3.8,5,5.2l3,2.2c1.1,0.9,2.9,0.6,3.6-0.7l0,0l4.2-0.1c0.4,0,0.8,0,1.2,0
			c0.2,0.1,0.3,0.3,0.4,0.4c0.3,0.3,0.6,0.6,0.9,0.9c0,0,0.1,0.1,0.1,0.1c-2.3,3-3.5,5.6,0.3,6.8c-0.7-1.9-0.3-3.6,0.7-4.9
			c1.2-1.6,3.2-2.4,5.2-2.1c1,0.1,2,0.6,3.3,1.7c0.5,0.4,0.8,1,0.5,0.1c-0.5-1.4-1.8-2.6-3.2-2.7c2-0.2,4.1,0.4,5.3,1.9
			c-0.1-0.3-0.2-0.7-0.3-1.1c-0.2-0.5-0.5-1-0.8-1.4c-0.4-0.5-1-0.8-1.5-0.9c-1-0.3-2.1-0.3-3.2-0.3c-1.1,0.2-2.2,0.5-3.3,0.8
			c-0.3,0.1-0.7,0.2-1,0.2c-0.5-0.4-1-0.8-1.5-1.1c0.3-0.6,0.3-1.4,0.1-2c-0.3-1-1-1.7-1.8-2.3c-1-0.7-2.1-1.1-3.2-1.6
			c-0.7-0.3-1.3-0.7-2-1c0.3,0.1,0.6,0.2,0.9,0.3c0.9,0.2,1.8,0.5,2.7,0.7c0.6,0.2,1.2,0.4,1.7,0.6c0.2,0.1,0.5,0.2,0.7,0.3
			c1.3,0.9,2.5,1.9,3.8,2.6c1.2,0.7,2.6,1.2,4,1.3c1,0.1,2.2,0,2.9-0.7c1.1,0,2.8,0.5,5.4,2.3c-5.7,7.4-3.2,7.9-0.5,7.9
			c-1.4-0.5-3.4-2-0.3-3.4c0.3-0.1,0.6-0.2,0.8-0.3c0.4-0.1,0.8-0.4,1.1-0.8c0.9-1.5,2.4-2.8,4.4-4.1c3.1-2.5,6.1-2,6,0.4
			c0.8-1.3,0.7-3-3.5-3.8C116.9,120.2,118.7,122.1,119.2,124z"/>
	</g>
	<g>
		<g>
			<path class="st0" d="M177.8,93v27.2H162V49h44.4v14.1h-28.7v15.8h25.5V93H177.8z"/>
			<path class="st0" d="M263.1,73.7v21.8c0,15.2-9.5,24.7-26.3,24.7h-25.5V49h25.5C253.6,49,263.1,58.6,263.1,73.7z M227,63.1v43
				h9.7c6.8,0,10.6-4,10.6-10.9V74.1c0-6.9-3.8-10.9-10.6-10.9H227z"/>
			<path class="st0" d="M318.2,120.2h-15.7v-29h-19.1v29h-15.7V49h15.7v28.1h19.1V49h15.7V120.2z"/>
			<path class="st0" d="M344.4,49h22.9c12.6,0,21.7,7.3,21.7,18.4c0,7.9-4,13.3-10.7,15.9v0.1c7.8,2.4,12.5,8.2,12.5,17.2
				c0,11.8-9,19.5-21.4,19.5h-24.8V49z M352.7,56v24.3H367c8.3,0,13.5-4.7,13.5-12.5c0-7.3-5.4-11.8-14-11.8H352.7z M352.7,87.3v26
				h15.6c8.7,0,13.9-5.1,13.9-12.9c0-8-5.1-13.1-13.4-13.1H352.7z"/>
			<path class="st0" d="M395.9,85.7c0-11.9,6.8-19.6,18.3-19.6c6.3,0,11.3,2.7,14.4,7.1l1.2-6.1h6.1v53h-6.1l-1.2-6.1
				c-3.1,4.4-8.2,7.1-14.4,7.1c-11.5,0-18.3-7.7-18.3-19.6V85.7z M427.9,101.2V86.3c0-7.4-4.7-13.1-12.5-13.1
				c-7.7,0-11.7,5.4-11.7,12.2V102c0,6.9,4,12.2,11.7,12.2C423.3,114.2,427.9,108.6,427.9,101.2z"/>
			<path class="st0" d="M445.3,120.2v-53h6.1l1.2,6.3c3.1-4.7,8.2-7.4,14.5-7.4c11.6,0,18.2,7.6,18.2,19.4v34.7h-7.9V85.4
				c0-6.8-4-12.2-11.7-12.2c-7.8,0-12.5,5.7-12.5,13.1v33.9H445.3z"/>
			<path class="st0" d="M502.1,46.9v46l23.2-25.7h9.2l-18.1,20.3l18.8,32.7h-9l-15.4-26.8l-8.8,9.6v17.1h-7.9V46.9H502.1z"/>
		</g>
	</g>
</g>
</svg>
