<?xml version="1.0" encoding="utf-8"?>
<!-- Generator: Adobe Illustrator 26.3.1, SVG Export Plug-In . SVG Version: 6.00 Build 0)  -->
<svg version="1.1" id="Layer_1" xmlns="http://www.w3.org/2000/svg" xmlns:xlink="http://www.w3.org/1999/xlink" x="0px" y="0px"
	 viewBox="0 0 245.7 307.2" style="enable-background:new 0 0 245.7 307.2;" xml:space="preserve">
<style type="text/css">
	.st0{fill:#154E9E;}
	.st1{fill:#FFFFFF;}
	.st2{fill:#DB9C1F;}
	.st3{fill:#606060;}
	.st4{fill:none;}
	.st5{font-family:'CiutadellaTRIAL-SmBd';}
	.st6{font-size:71.6407px;}
	.st7{letter-spacing:-5;}
	.st8{font-family:'CiutadellaTRIAL-Rg';}
</style>
<g>
	<g>
		<text transform="matrix(1 0 0 1 -1.029968e-04 293.0608)"><tspan x="0" y="0" class="st0 st5 st6 st7">FDH</tspan><tspan x="106.4" y="0" class="st0 st8 st6 st7"> Bank</tspan></text>
	</g>
	<g>
		<g>
			<path class="st2" d="M209.5,181.6c-1.9-0.7-7-4.2-13.9-9.5c4.9-10.5,7.6-22.1,7.6-34.4c0-45.2-36.6-81.8-81.8-81.8
				c-12,0-23.5,2.6-33.7,7.3c-3.6-5.9-6.9-11.9-9.9-18.1C65.9,21.5,62.1,4.4,62,4.3c-0.5-2.3-2.5-4.1-4.9-4.3
				c-2.4-0.2-4.6,1.2-5.5,3.4C42.1,26.9,37,48.7,36.4,68c-0.4,15.8,2.2,30.2,7.7,42.8c-2.9,8.4-4.5,17.5-4.5,26.9
				c0,45.2,36.6,81.8,81.8,81.8c26.4,0,49.9-12.5,64.9-32c12.3,3,20.1,4.5,20.3,4.5c0.3,0.1,0.7,0.1,1,0.1c2.4,0,4.6-1.6,5.3-4
				C213.6,185.5,212.1,182.6,209.5,181.6z"/>
			<g>
				<g>
					<g>
						<path class="st0" d="M56.7,5.5c0,0,15.3,69.5,81.9,125.8c0,0-12.2,11.7-6,24.2l18.2-12.5c0,0,48.2,40.6,56.9,43.8
							c0,0-43-8.3-87-24.5l-24.8,15.4l-37.9-23.9l32.6-5.3C90.4,148.5,9.3,122.1,56.7,5.5z"/>
					</g>
					<g>
						<path class="st0" d="M166.6,142.6c0,0-3.5-11-15.8,0.4l-12.1-11.7C138.6,131.3,166.6,112.9,166.6,142.6z"/>
					</g>
				</g>
			</g>
		</g>
	</g>
</g>
</svg>
