<svg id="FDH_LOGO-03_FOR_BLUE" data-name="FDH LOGO-03 FOR BLUE" xmlns="http://www.w3.org/2000/svg" width="210.818" height="57.418" viewBox="0 0 210.818 57.418">
  <g id="Group_334" data-name="Group 334" transform="translate(0)">
    <path id="Path_315" data-name="Path 315" d="M48.834,4.638H14.4a3.031,3.031,0,0,0-1.94,1.213,2.529,2.529,0,0,0-.243.364c-.03-.273-.091-.515-.121-.788-.121-.788-.243-1.607-.364-2.395A1.4,1.4,0,0,0,9.09,2.637,18.684,18.684,0,0,0,7.847,5.881c-.606-1.667-1.091-3.3-1.485-4.82A1.428,1.428,0,0,0,5,0H5A1.42,1.42,0,0,0,3.634,1.061a21.627,21.627,0,0,0-.7,6.488,1.627,1.627,0,0,0-.667-.03A1.417,1.417,0,0,0,1.148,8.761,16.6,16.6,0,0,0,1.39,13.4a1.314,1.314,0,0,0-.576.121A1.368,1.368,0,0,0,0,14.855,12.426,12.426,0,0,0,1.269,19.4a1.361,1.361,0,0,0-.7,1.091,9.836,9.836,0,0,0,1.819,5.7,2.261,2.261,0,0,0-.212.364A1.369,1.369,0,0,0,2.33,27.83L7.7,35.924a25.562,25.562,0,0,0,5.639,6.154c.273.212.576.455.909.667-2.243-.243-3.88-.394-4.669.728a2.485,2.485,0,0,0-.546,1.91l.061.758a4.537,4.537,0,0,0,.97,2.456,5.326,5.326,0,0,0,4.244,1.88v3.365a3.772,3.772,0,0,0,3.941,3.577H48.895a3.772,3.772,0,0,0,3.941-3.577V8.216A3.909,3.909,0,0,0,48.834,4.638Z" transform="translate(0.006)" fill="#db9c1f"/>
    <path id="Path_316" data-name="Path 316" d="M49.956,51h0c.061-1.091-1.273-2.122-2.213-1.061-1.061-.455-1.758.667-1.971.849-.909-.3-1.455-.485-2.334-.758a1.633,1.633,0,0,1-.243-.637.707.707,0,0,0-.576-.606,12.256,12.256,0,0,1-4.244-1.546,3.325,3.325,0,0,1-.909-4.972A3.634,3.634,0,0,1,37.8,41.9a3.144,3.144,0,0,1,1.91-.97c3.577-.485,3.82.667,5.123.728-.485-.212-.849-.819-1.243-1.7,1.758.121,2.7.546,1.789,1.546,2.334-1.516.455-2.425-.788-3.426-.121-1.728-6.548-2.88-11.611-.667a7.387,7.387,0,0,1,3.7-1.637c3.82-5.366,11.338-8.61,10.944-17.31A9.754,9.754,0,0,1,43.5,24.291c1.395-3,1.3-5.851.3-7.7A12.686,12.686,0,0,1,41.74,23.9c0-2.759-.333-5.214-1.971-7.245a19.6,19.6,0,0,1-.455,8.094,7.116,7.116,0,0,0-2.334-5,18.31,18.31,0,0,1-.03,5.457,5.022,5.022,0,0,0-1.971-2.728,24.1,24.1,0,0,1-.121,2.941,6.062,6.062,0,0,0-1.91-.606,6.635,6.635,0,0,0,.394,2.3,3.151,3.151,0,0,0-1.516.03,3.264,3.264,0,0,0,.121,1.819,3.577,3.577,0,0,0-1.425,1.364,3.25,3.25,0,0,0-.637,1.425,4.672,4.672,0,0,0,.94,3.153,8.231,8.231,0,0,1,.728,2.031c-3.486-3.274-4.335-6.942-5.123-10.611C20.155,21.108,17.942,14.772,18,7.829c-2.3.061-2.7,3.3-1.425,9.489C14.274,13.5,14.062,9.345,13.3,4.98a13.4,13.4,0,0,0-.394,11.763A78.651,78.651,0,0,1,7.968,3.1,20.635,20.635,0,0,0,10.03,18.531c-2.092-2.213-3.183-5.4-4.517-7.852a17.506,17.506,0,0,0,1.88,9.095A21.472,21.472,0,0,1,4.3,16.651a13,13,0,0,0,2.91,6.882c-.7-.182-1.88-.97-2.334-.94-.152,1.7.97,4.456,2.668,6.215-.394.091-.758.212-1.152.3l5.427,8.216a25.035,25.035,0,0,0,5.4,5.912c2.516,1.971,5.154,3.213,7.973,2.607a10.771,10.771,0,0,1-4.76.849c-2.7.03-6.215-.879-6.73-.091-.212.3-.394.606-.3.879l.091.849a3.389,3.389,0,0,0,.667,1.758c2.152,2.7,7.549,1.152,14.461-2.3-.728.515-1.425,1.031-2.152,1.576a13.118,13.118,0,0,0,4.275.121L30.1,47.937c.455.7.909,1.395,1.334,2.092A7.947,7.947,0,0,0,33.4,52.09l1.182.849a.954.954,0,0,0,1.425-.273h0l1.637-.061a2.294,2.294,0,0,1,.455.03c.061.061.121.091.182.152l.364.364c.03.03.03.03.061.03-.909,1.182-1.364,2.213.091,2.668a1.993,1.993,0,0,1,.273-1.94,2.137,2.137,0,0,1,2.061-.819,2.661,2.661,0,0,1,1.3.667c.182.152.3.364.182.03a1.584,1.584,0,0,0-1.243-1.061,2.288,2.288,0,0,1,2.092.758,1.738,1.738,0,0,1-.121-.424,2.031,2.031,0,0,0-.333-.546,1.133,1.133,0,0,0-.606-.364,2.993,2.993,0,0,0-1.273-.091c-.424.091-.849.212-1.273.333a1.774,1.774,0,0,1-.394.061c-.182-.152-.364-.3-.576-.455a1.182,1.182,0,0,0,.061-.788,1.764,1.764,0,0,0-.7-.909,9.6,9.6,0,0,0-1.243-.637c-.273-.121-.515-.273-.788-.394l.364.091c.364.091.728.182,1.091.3.243.061.455.152.667.212.091.061.182.091.273.152.485.333.97.728,1.485,1.031a4.057,4.057,0,0,0,1.546.515A1.506,1.506,0,0,0,42.8,51.3a4.088,4.088,0,0,1,2.122.909c-2.243,2.91-1.273,3.123-.182,3.123-.576-.212-1.334-.819-.121-1.334.121-.03.212-.091.333-.121a.738.738,0,0,0,.424-.3,5.254,5.254,0,0,1,1.728-1.607c1.243-1,2.425-.819,2.365.182.333-.515.273-1.213-1.364-1.516C49.046,49.483,49.713,50.241,49.956,51Z" transform="translate(-2.995 -2.16)" fill="#154e9e"/>
  </g>
  <g id="Group_335" data-name="Group 335" transform="translate(63.817 18.462)">
    <path id="Path_317" data-name="Path 317" d="M216.684,81.01v10.7H210.5V63.7h17.492v5.548H216.684v6.215h10.035V81.01Z" transform="translate(-210.5 -62.851)" fill="#fff"/>
    <path id="Path_318" data-name="Path 318" d="M294.9,73.431v8.579c0,5.972-3.759,9.731-10.368,9.731H274.5V63.7h10.034C291.143,63.7,294.9,67.459,294.9,73.431Zm-14.188-4.184V86.194h3.85c2.7,0,4.184-1.576,4.184-4.3V73.553c0-2.728-1.485-4.3-4.184-4.3Z" transform="translate(-255.098 -62.851)" fill="#fff"/>
    <path id="Path_319" data-name="Path 319" d="M367.687,91.712H361.5V80.283h-7.518V91.712H347.8V63.7h6.184V74.735H361.5V63.7h6.184Z" transform="translate(-306.176 -62.851)" fill="#fff"/>
    <path id="Path_320" data-name="Path 320" d="M447.5,63.7h9c4.941,0,8.519,2.85,8.519,7.245a6.3,6.3,0,0,1-4.214,6.275v.03a6.588,6.588,0,0,1,4.911,6.791c0,4.638-3.547,7.67-8.458,7.67H447.5Zm3.244,2.728v9.549h5.639c3.274,0,5.336-1.849,5.336-4.911,0-2.85-2.122-4.638-5.517-4.638Zm0,12.339V89.014H456.9c3.426,0,5.457-2,5.457-5.063,0-3.153-2-5.154-5.275-5.154h-6.336Z" transform="translate(-375.652 -62.851)" fill="#fff"/>
    <path id="Path_321" data-name="Path 321" d="M514.3,93.631c0-4.7,2.7-7.731,7.215-7.731a6.67,6.67,0,0,1,5.669,2.819l.455-2.395h2.395v20.857h-2.395l-.455-2.395a6.748,6.748,0,0,1-5.669,2.819c-4.517,0-7.215-3.032-7.215-7.731Zm12.642,6.093V93.843c0-2.91-1.849-5.154-4.911-5.154-3.032,0-4.608,2.122-4.608,4.82v6.518c0,2.728,1.576,4.82,4.608,4.82C525.092,104.847,526.942,102.634,526.942,99.724Z" transform="translate(-422.201 -78.321)" fill="#fff"/>
    <path id="Path_322" data-name="Path 322" d="M578.5,107.182V86.324h2.395l.455,2.486a6.634,6.634,0,0,1,5.73-2.91c4.578,0,7.154,2.971,7.154,7.64v13.642h-3.122V93.509c0-2.7-1.576-4.82-4.608-4.82-3.062,0-4.911,2.274-4.911,5.154v13.339Z" transform="translate(-466.938 -78.321)" fill="#fff"/>
    <path id="Path_323" data-name="Path 323" d="M645.122,60.9V79.029l9.125-10.1h3.638l-7.124,7.973,7.427,12.884h-3.547l-6.063-10.55-3.456,3.789v6.73H642V60.9Z" transform="translate(-511.187 -60.9)" fill="#fff"/>
  </g>
</svg>
