<svg id="FDH_LOGO_FOR_WHITE-13" data-name="FDH LOGO FOR WHITE-13" xmlns="http://www.w3.org/2000/svg" width="280.977" height="76.596" viewBox="0 0 280.977 76.596">
  <g id="Group_342" data-name="Group 342" transform="translate(0)">
    <path id="Path_347" data-name="Path 347" d="M65.095,6.195H19.158a4,4,0,0,0-2.572,1.627l-.315.472c-.052-.367-.1-.682-.157-1.05-.157-1.05-.315-2.1-.525-3.2A1.9,1.9,0,0,0,14.014,2.52a1.948,1.948,0,0,0-1.942,1,21,21,0,0,0-1.627,4.357c-.735-2.2-1.417-4.41-1.89-6.4A1.942,1.942,0,0,0,6.716,0h0A1.847,1.847,0,0,0,4.931,1.417a28.637,28.637,0,0,0-.892,8.662,1.985,1.985,0,0,0-.945-.052,1.838,1.838,0,0,0-1.47,1.627,18.417,18.417,0,0,0,.315,6.195,2.107,2.107,0,0,0-.787.157A1.882,1.882,0,0,0,0,19.845a16.476,16.476,0,0,0,1.68,6.09A1.9,1.9,0,0,0,.731,27.4a13.306,13.306,0,0,0,2.415,7.56,2.128,2.128,0,0,0-.262.472,1.74,1.74,0,0,0,.21,1.68l7.14,10.815a35.162,35.162,0,0,0,7.507,8.19c.367.315.787.577,1.207.892-2.992-.315-5.2-.525-6.247,1a3.433,3.433,0,0,0-.735,2.52l.1,1a6.145,6.145,0,0,0,1.312,3.307,7.044,7.044,0,0,0,5.67,2.52v4.462A5.047,5.047,0,0,0,24.3,76.6H65.095a5.047,5.047,0,0,0,5.25-4.777V10.92A5.039,5.039,0,0,0,65.095,6.195Z" transform="translate(0.008)" fill="#db9c1f"/>
    <path id="Path_348" data-name="Path 348" d="M64.146,66.238h0c.1-1.47-1.68-2.835-2.94-1.417-1.417-.63-2.362.892-2.625,1.155-1.207-.367-1.942-.63-3.1-1.05a1.843,1.843,0,0,1-.315-.84.893.893,0,0,0-.787-.787,16.606,16.606,0,0,1-5.67-2.047A4.409,4.409,0,0,1,47.5,54.636c.158-.158.262-.315.42-.472a4.367,4.367,0,0,1,2.52-1.312c4.777-.682,5.092.892,6.825,1a3.987,3.987,0,0,1-1.627-2.257c2.362.157,3.622.735,2.362,2.047,3.1-1.995.577-3.255-1.05-4.567-.158-2.31-8.715-3.832-15.487-.892a9.837,9.837,0,0,1,4.935-2.2c5.092-7.14,15.12-11.445,14.595-23.1a13.165,13.165,0,0,1-5.512,7.77c1.837-3.99,1.732-7.77.367-10.237a17.326,17.326,0,0,1-2.782,9.765c0-3.675-.472-6.982-2.625-9.66a25.519,25.519,0,0,1-.63,10.762,9.44,9.44,0,0,0-3.1-6.667,22.716,22.716,0,0,1-.053,7.3,6.823,6.823,0,0,0-2.625-3.675,33.36,33.36,0,0,1-.157,3.937,8.651,8.651,0,0,0-2.52-.787,9.022,9.022,0,0,0,.525,3.045,4.18,4.18,0,0,0-1.995.052,4.427,4.427,0,0,0,.157,2.415,4.735,4.735,0,0,0-1.89,1.785,4.171,4.171,0,0,0-.84,1.89c-.21,1.47.262,2.467,1.26,4.2a13.2,13.2,0,0,1,1,2.73c-4.62-4.357-5.775-9.24-6.825-14.122C24.4,26.339,21.465,17.94,21.517,8.647c-3.045.052-3.622,4.41-1.89,12.652-3.045-5.04-3.36-10.6-4.357-16.432-2.152,4.3-3.1,9.24-.525,15.7A107.99,107.99,0,0,1,8.182,2.4a27.589,27.589,0,0,0,2.73,20.58C8.13,20.04,6.66,15.787,4.875,12.532c-.42,4.725.945,8.557,2.52,12.075A27.711,27.711,0,0,1,3.3,20.46a17.314,17.314,0,0,0,3.885,9.135c-.892-.262-2.467-1.312-3.1-1.26-.21,2.257,1.312,5.932,3.57,8.295-.525.157-1,.262-1.522.42l7.245,10.92a33.148,33.148,0,0,0,7.192,7.875c3.36,2.625,6.877,4.3,10.6,3.465-2.1,1-3.675,1-6.352,1.1-3.622.053-8.242-1.155-8.977-.1-.262.367-.525.84-.42,1.155l.1,1.155a4.46,4.46,0,0,0,.892,2.31c2.887,3.57,10.08,1.522,19.267-3.045-.945.682-1.89,1.365-2.835,2.1a18.15,18.15,0,0,0,5.67.158c-.262-.682-.577-1.365-.84-2.047.577.945,1.207,1.837,1.785,2.782A9.984,9.984,0,0,0,42.1,67.6l1.575,1.155a1.273,1.273,0,0,0,1.89-.367h0l2.2-.053h.63c.1.053.157.157.21.21l.472.472.052.053c-1.207,1.575-1.837,2.94.158,3.57a2.593,2.593,0,0,1,.367-2.572,2.873,2.873,0,0,1,2.73-1.1,3.217,3.217,0,0,1,1.732.892c.262.21.42.525.262.053A2.1,2.1,0,0,0,52.7,68.5a3.149,3.149,0,0,1,2.782,1c-.052-.158-.1-.367-.157-.577a3.347,3.347,0,0,0-.42-.735,1.393,1.393,0,0,0-.787-.472,5.9,5.9,0,0,0-1.68-.157c-.577.1-1.155.262-1.732.42a1.865,1.865,0,0,1-.525.105,7.514,7.514,0,0,0-.787-.577,1.454,1.454,0,0,0,.052-1.05,2.394,2.394,0,0,0-.945-1.207,10.04,10.04,0,0,0-1.68-.84c-.367-.157-.682-.367-1.05-.525l.472.158c.472.1.945.262,1.417.367.315.1.63.21.892.315.1.052.262.1.367.158a22.483,22.483,0,0,0,1.995,1.365,4.957,4.957,0,0,0,2.1.682,1.919,1.919,0,0,0,1.522-.367,5.364,5.364,0,0,1,2.835,1.207c-2.992,3.885-1.68,4.147-.262,4.147-.735-.262-1.785-1.05-.157-1.785a3.617,3.617,0,0,0,.42-.157,1.1,1.1,0,0,0,.577-.42,7.1,7.1,0,0,1,2.31-2.152c1.627-1.312,3.2-1.05,3.15.21.42-.682.367-1.575-1.837-1.995C62.939,64.244,63.884,65.241,64.146,66.238Z" transform="translate(-1.564 -1.14)" fill="#154e9e"/>
  </g>
  <g id="Group_344" data-name="Group 344" transform="translate(85.052 24.622)">
    <g id="Group_343" data-name="Group 343">
      <path id="Path_349" data-name="Path 349" d="M170.295,72.1v14.28H162V49h23.309v7.4H170.242V64.7h13.387v7.4Z" transform="translate(-162 -47.898)" fill="#154e9e"/>
      <path id="Path_350" data-name="Path 350" d="M238.494,61.967V73.412c0,7.98-4.987,12.967-13.807,12.967H211.3V49h13.387C233.507,49,238.494,54.04,238.494,61.967ZM219.542,56.4V78.977h5.092c3.57,0,5.565-2.1,5.565-5.722V62.177c0-3.622-1.995-5.722-5.565-5.722h-5.092Z" transform="translate(-185.418 -47.898)" fill="#154e9e"/>
      <path id="Path_351" data-name="Path 351" d="M294.212,86.379H285.97V71.154H275.942V86.379H267.7V49h8.242V63.752H285.97V49h8.242Z" transform="translate(-212.209 -47.898)" fill="#154e9e"/>
      <path id="Path_352" data-name="Path 352" d="M344.4,49h12.022c6.615,0,11.392,3.832,11.392,9.66a8.381,8.381,0,0,1-5.617,8.347v.052c4.095,1.26,6.562,4.3,6.562,9.03,0,6.195-4.725,10.237-11.235,10.237H344.5V49Zm4.357,3.675V65.432h7.507c4.357,0,7.087-2.467,7.087-6.562,0-3.832-2.835-6.195-7.35-6.195Zm0,16.432v13.65h8.19c4.567,0,7.3-2.677,7.3-6.772,0-4.2-2.677-6.877-7.035-6.877Z" transform="translate(-248.642 -47.898)" fill="#154e9e"/>
      <path id="Path_353" data-name="Path 353" d="M395.9,76.39c0-6.247,3.57-10.29,9.607-10.29a8.927,8.927,0,0,1,7.56,3.727l.63-3.2h3.2V94.449h-3.2l-.63-3.2a9,9,0,0,1-7.56,3.727c-6.037,0-9.607-4.042-9.607-10.29Zm16.8,8.137V76.7c0-3.885-2.467-6.877-6.562-6.877-4.042,0-6.142,2.835-6.142,6.4v8.715c0,3.622,2.1,6.4,6.142,6.4C410.285,91.352,412.7,88.412,412.7,84.527Z" transform="translate(-273.105 -56.02)" fill="#154e9e"/>
      <path id="Path_354" data-name="Path 354" d="M445.3,94.5V66.677h3.2l.63,3.307a8.769,8.769,0,0,1,7.612-3.885c6.09,0,9.555,3.99,9.555,10.185V94.5h-4.147V76.232c0-3.57-2.1-6.4-6.142-6.4-4.095,0-6.562,2.992-6.562,6.877V94.5Z" transform="translate(-296.571 -56.02)" fill="#154e9e"/>
      <path id="Path_355" data-name="Path 355" d="M498.3,46.9V71.049l12.18-13.492h4.83l-9.5,10.657,9.87,17.167h-4.725l-8.085-14.07-4.62,5.04v8.977H494.1V46.9Z" transform="translate(-319.752 -46.9)" fill="#154e9e"/>
    </g>
  </g>
</svg>
