<?xml version="1.0" encoding="utf-8"?>
<!-- Generator: Adobe Illustrator 26.3.1, SVG Export Plug-In . SVG Version: 6.00 Build 0)  -->
<svg version="1.1" id="Layer_1" xmlns="http://www.w3.org/2000/svg" xmlns:xlink="http://www.w3.org/1999/xlink" x="0px" y="0px"
	 viewBox="0 0 695.4 189.6" style="enable-background:new 0 0 695.4 189.6;" xml:space="preserve">
<style type="text/css">
	.st0{fill:#154E9E;}
	.st1{fill:#FFFFFF;}
	.st2{fill:#DB9C1F;}
	.st3{fill:#606060;}
	.st4{fill:none;}
</style>
<g>
	<g>
		<path class="st2" d="M161.1,15.3l-113.6,0l0,0c-2.6,0.4-4.8,1.9-6.4,4c-0.3,0.4-0.6,0.8-0.8,1.2c-0.1-0.9-0.3-1.7-0.4-2.6
			c-0.4-2.6-0.8-5.3-1.2-7.9c-0.3-2-1.9-3.5-3.9-3.8c-2-0.3-3.9,0.7-4.8,2.5c-1.8,3.6-3.1,7.2-4.1,10.7C23.9,13.9,22.3,8.5,21,3.5
			c-0.5-2-2.4-3.5-4.5-3.5c0,0,0,0,0,0c-2.1,0-3.9,1.4-4.5,3.5c-1.9,7.2-2.6,14.3-2.3,21.4c-0.7-0.2-1.4-0.2-2.2-0.1
			c-2,0.4-3.5,2.1-3.7,4.1c-0.5,5.5-0.1,10.5,0.8,15.3c-0.6,0-1.3,0.1-1.9,0.4C1,45.3-0.1,47.1,0,49c0.3,5.2,2,10.4,4.2,15
			c-1.3,0.7-2.2,2.1-2.3,3.6c-0.5,5.4,2,12.7,6,18.8c-0.3,0.4-0.5,0.8-0.7,1.2c-0.5,1.4-0.4,2.9,0.5,4.2l17.7,26.7
			c5.3,8,11.5,14.8,18.6,20.3c0.9,0.7,1.9,1.5,3,2.2c-7.4-0.8-12.8-1.3-15.4,2.4c-0.7,1-2.4,3.4-1.8,6.3l0.2,2.5
			c0.3,3.1,1.4,5.9,3.2,8.1c3.4,4.3,8.3,6,14,6.2l0,11.1c0,6.5,5.8,11.8,13,11.8h101.1c7.2,0,13-5.3,13-11.8V27.1
			C174,20.6,168.2,15.3,161.1,15.3z"/>
		<path class="st0" d="M154.9,161.1C154.9,161.1,154.9,161.1,154.9,161.1c0.2-3.6-4.2-7-7.3-3.5c-3.5-1.5-5.8,2.2-6.5,2.8
			c-3-1-4.8-1.6-7.7-2.5c-0.4-0.6-0.7-1.4-0.8-2.1c-0.1-1-0.9-1.8-1.9-2c-5.4-0.9-9.6-2.6-14-5.1c-5.8-3.4-7.3-11.3-3-16.4
			c0.3-0.4,0.7-0.8,1.1-1.2c1.7-1.8,3.9-2.9,6.3-3.2c11.8-1.6,12.6,2.2,16.9,2.4c-1.6-0.7-2.8-2.7-4.1-5.6c5.8,0.4,8.9,1.8,5.9,5.1
			c7.7-5,1.5-8-2.6-11.3c-0.4-5.7-21.6-9.5-38.3-2.2c2.5-2.2,6.4-4.4,12.2-5.4c12.6-17.7,37.4-28.4,36.1-57.1
			c-2.3,7.4-5.8,14.3-13.6,19.2c4.6-9.9,4.3-19.3,1-25.4c0.7,8.6-2.9,18-6.8,24.1c0-9.1-1.1-17.2-6.5-23.9
			c1.7,9.1,0.5,18.2-1.5,26.7c-0.6-7.1-3.2-12.6-7.7-16.5c0.7,5.8,1,11.8-0.1,18c-0.8-3.3-3-6.3-6.5-9c0,3.2,0,6.4-0.4,9.7
			c-2.2-1.1-4.2-1.7-6.3-2c-0.1,2,0.3,4.5,1.3,7.6c-1.9-0.3-3.6-0.4-5,0.1c-0.4,1.3-0.4,3.3,0.4,6c-3.1,1.9-3.8,3.1-4.7,4.5
			c-0.9,1.3-1.8,2.7-2.1,4.7c-0.5,3.6,0.7,6.2,3.1,10.4c0.7,1.5,2,4.2,2.4,6.7c-11.5-10.8-14.3-22.9-16.9-35
			c-20.7-17.2-28-38.1-27.8-61c-7.6,0.2-8.9,10.9-4.7,31.3C37.2,37.4,36.5,23.7,34,9.3c-5.3,10.6-7.7,22.9-1.3,38.8
			c-6.6-13.7-12.8-31.2-16.3-45c-4.1,15.6-2.9,32.9,6.8,50.9c-6.9-7.3-10.5-17.8-14.9-25.9c-1.1,11.8,2.3,21.2,6.2,30
			c-3.6-2.4-7.5-7.4-10.2-10.3c0.4,7.7,4.6,16.5,9.6,22.7c-2.3-0.6-6.2-3.2-7.7-3.1C5.7,73,9.4,82.1,15,87.9c-1.3,0.3-2.5,0.7-3.8,1
			L29.1,116c4.9,7.4,10.8,14,17.8,19.5c8.3,6.5,17,10.6,26.3,8.6c-5.2,2.5-9.1,2.5-15.7,2.8c-8.9,0.1-20.5-2.9-22.2-0.3
			c-0.7,1-1.3,2-1,2.9l0.3,2.8c0.2,2.1,0.9,4.1,2.2,5.8c7.1,8.9,24.9,3.8,47.7-7.6c-2.4,1.7-4.7,3.4-7.1,5.2
			c4.2,0.7,8.6,1.2,14.1,0.4c-0.7-1.7-1.4-3.4-2.1-5.1c1.5,2.3,3,4.6,4.4,6.9c1.7,2.6,3.9,4.9,6.5,6.8l3.9,2.8
			c1.5,1.2,3.7,0.8,4.7-0.9l0,0l5.4-0.2c0.5,0,1,0,1.5,0.1c0.2,0.2,0.4,0.3,0.6,0.5c0.4,0.4,0.8,0.8,1.2,1.2
			c0.1,0.1,0.1,0.1,0.2,0.1c-3,3.9-4.5,7.3,0.3,8.8c-0.9-2.4-0.4-4.6,0.9-6.4c1.5-2.1,4.2-3.1,6.8-2.7c1.3,0.2,2.6,0.8,4.3,2.2
			c0.6,0.5,1,1.2,0.6,0.1c-0.6-1.8-2.3-3.3-4.1-3.5c2.7-0.3,5.3,0.5,6.9,2.5c-0.2-0.4-0.3-0.9-0.4-1.4c-0.3-0.6-0.6-1.3-1.1-1.8
			c-0.5-0.6-1.2-1-2-1.2c-1.3-0.4-2.8-0.5-4.2-0.3c-1.4,0.3-2.8,0.7-4.2,1.1c-0.4,0.1-0.9,0.2-1.3,0.2c-0.6-0.5-1.2-1-1.9-1.5
			c0.4-0.8,0.4-1.8,0.2-2.6c-0.4-1.3-1.3-2.3-2.3-3c-1.3-0.9-2.7-1.4-4.1-2.1c-0.9-0.4-1.7-0.9-2.6-1.3c0.4,0.1,0.8,0.2,1.2,0.3
			c1.2,0.3,2.4,0.6,3.6,1c0.8,0.2,1.5,0.5,2.2,0.7c0.3,0.2,0.6,0.3,0.9,0.5c1.6,1.1,3.2,2.4,4.9,3.4c1.6,0.9,3.3,1.5,5.1,1.7
			c1.3,0.1,2.9,0,3.8-0.9c1.5,0,3.6,0.7,7,3c-7.4,9.6-4.2,10.3-0.6,10.3c-1.9-0.7-4.4-2.7-0.4-4.4c0.4-0.1,0.7-0.3,1.1-0.4
			c0.6-0.2,1.1-0.5,1.4-1c1.2-1.9,3.1-3.7,5.7-5.3c4.1-3.3,8-2.7,7.8,0.6c1.1-1.7,0.9-4-4.5-5C151.9,156.1,154.1,158.6,154.9,161.1z
			"/>
	</g>
	<g>
		<path class="st1" d="M230.9,120.8v35.3h-20.4V63.7h57.7V82h-37.3v20.5H264v18.3H230.9z"/>
		<path class="st1" d="M341.8,95.8v28.3c0,19.7-12.4,32.1-34.2,32.1h-33.1V63.7h33.1C329.4,63.7,341.8,76.1,341.8,95.8z M295,82
			v55.9h12.7c8.9,0,13.8-5.2,13.8-14.2V96.2c0-9-4.9-14.2-13.8-14.2H295z"/>
		<path class="st1" d="M413.4,156.1H393v-37.7h-24.8v37.7h-20.4V63.7h20.4v36.4H393V63.7h20.4V156.1z"/>
		<path class="st1" d="M447.5,63.7h29.7c16.3,0,28.1,9.4,28.1,23.9c0,10.3-5.2,17.3-13.9,20.7v0.1c10.1,3.1,16.2,10.7,16.2,22.4
			c0,15.3-11.7,25.3-27.9,25.3h-32.2V63.7z M458.2,72.7v31.5h18.6c10.8,0,17.6-6.1,17.6-16.2c0-9.4-7-15.3-18.2-15.3H458.2z
			 M458.2,113.4v33.8h20.3c11.3,0,18-6.6,18-16.7c0-10.4-6.6-17-17.4-17H458.2z"/>
		<path class="st1" d="M514.3,111.4c0-15.5,8.9-25.5,23.8-25.5c8.2,0,14.6,3.5,18.7,9.3l1.5-7.9h7.9v68.8h-7.9l-1.5-7.9
			c-4.1,5.8-10.7,9.3-18.7,9.3c-14.9,0-23.8-10-23.8-25.5V111.4z M556,131.5v-19.4c0-9.6-6.1-17-16.2-17c-10,0-15.2,7-15.2,15.9
			v21.5c0,9,5.2,15.9,15.2,15.9C549.9,148.4,556,141.1,556,131.5z"/>
		<path class="st1" d="M578.5,156.1V87.3h7.9l1.5,8.2c4.1-6.1,10.7-9.6,18.9-9.6c15.1,0,23.6,9.8,23.6,25.2v45h-10.3V111
			c0-8.9-5.2-15.9-15.2-15.9c-10.1,0-16.2,7.5-16.2,17v44H578.5z"/>
		<path class="st1" d="M652.3,60.9v59.8l30.1-33.3h12l-23.5,26.3l24.5,42.5h-11.7l-20-34.8l-11.4,12.5v22.2h-10.3V60.9H652.3z"/>
	</g>
</g>
</svg>
