<?xml version="1.0" encoding="utf-8"?>
<!-- Generator: Adobe Illustrator 26.3.1, SVG Export Plug-In . SVG Version: 6.00 Build 0)  -->
<svg version="1.1" id="Layer_1" xmlns="http://www.w3.org/2000/svg" xmlns:xlink="http://www.w3.org/1999/xlink" x="0px" y="0px"
	 viewBox="0 0 762.2 212.8" style="enable-background:new 0 0 762.2 212.8;" xml:space="preserve">
<style type="text/css">
	.st0{fill:#154E9E;}
	.st1{fill:#FFFFFF;}
	.st2{fill:#DB9C1F;}
	.st3{fill:#606060;}
	.st4{fill:none;}
</style>
<g>
	<g>
		<path class="st1" d="M231,143.1v40.4h-23.3V77.8h66v20.9H231v23.5h37.8v20.9H231z"/>
		<path class="st1" d="M357.8,114.5v32.3c0,22.5-14.2,36.7-39.1,36.7h-37.8V77.8h37.8C343.7,77.8,357.8,91.9,357.8,114.5z
			 M304.2,98.7v63.9h14.5c10.1,0,15.8-6,15.8-16.3v-31.4c0-10.3-5.6-16.3-15.8-16.3H304.2z"/>
		<path class="st1" d="M439.7,183.5h-23.3v-43.1h-28.3v43.1h-23.3V77.8h23.3v41.7h28.3V77.8h23.3V183.5z"/>
		<path class="st1" d="M478.7,77.8h34c18.7,0,32.2,10.8,32.2,27.4c0,11.7-6,19.8-15.9,23.7v0.2c11.6,3.5,18.5,12.2,18.5,25.6
			c0,17.5-13.4,29-31.9,29h-36.8V77.8z M490.9,88.1v36h21.2c12.4,0,20.1-6.9,20.1-18.5c0-10.8-8-17.5-20.8-17.5H490.9z M490.9,134.6
			v38.6h23.2c12.9,0,20.6-7.6,20.6-19.1c0-11.9-7.6-19.5-20-19.5H490.9z"/>
		<path class="st1" d="M555.1,132.3c0-17.7,10.1-29.1,27.2-29.1c9.3,0,16.7,4,21.4,10.6l1.8-9h9v78.7h-9l-1.8-9
			c-4.7,6.6-12.2,10.6-21.4,10.6c-17.1,0-27.2-11.4-27.2-29.1V132.3z M602.7,155.3v-22.2c0-10.9-6.9-19.5-18.5-19.5
			c-11.4,0-17.4,8-17.4,18.2v24.6c0,10.3,6,18.2,17.4,18.2C595.8,174.6,602.7,166.3,602.7,155.3z"/>
		<path class="st1" d="M628.5,183.5v-78.7h9l1.8,9.3c4.7-6.9,12.2-10.9,21.6-10.9c17.2,0,27,11.3,27,28.8v51.5h-11.7v-51.7
			c0-10.1-6-18.2-17.4-18.2c-11.6,0-18.5,8.5-18.5,19.5v50.4H628.5z"/>
		<path class="st1" d="M712.9,74.6v68.4l34.4-38.1H761l-26.9,30.1l28,48.6h-13.4L726,143.7l-13,14.3v25.4h-11.7V74.6H712.9z"/>
	</g>
	<g>
		<g>
			<path class="st2" d="M167.8,176c-1.8-0.7-6.8-4.1-13.4-9.2c4.7-10.1,7.4-21.4,7.4-33.4c0-43.8-35.5-79.3-79.3-79.3
				c-11.7,0-22.7,2.5-32.7,7c-3.5-5.7-6.7-11.6-9.6-17.5C28.6,20.9,24.9,4.3,24.8,4.2c-0.5-2.3-2.4-3.9-4.7-4.1
				c-2.3-0.2-4.5,1.1-5.3,3.3C5.5,26.1,0.6,47.2,0,65.9c-0.4,15.3,2.1,29.3,7.5,41.5c-2.8,8.2-4.4,16.9-4.4,26.1
				c0,43.8,35.5,79.3,79.3,79.3c25.6,0,48.4-12.1,62.9-31c11.9,2.9,19.5,4.4,19.7,4.4c0.3,0.1,0.7,0.1,1,0.1c2.3,0,4.4-1.5,5.1-3.9
				C171.8,179.8,170.3,177,167.8,176z"/>
			<g>
				<g>
					<g>
						<path class="st0" d="M19.7,5.3c0,0,14.8,67.3,79.4,121.9c0,0-11.8,11.3-5.8,23.5l17.6-12.2c0,0,46.7,39.3,55.1,42.4
							c0,0-41.7-8.1-84.3-23.7l-24.1,14.9L20.8,149l31.6-5.1C52.4,143.9-26.2,118.3,19.7,5.3z"/>
					</g>
					<g>
						<path class="st0" d="M126.2,138.2c0,0-3.4-10.7-15.4,0.3l-11.8-11.3C99.1,127.2,126.2,109.4,126.2,138.2z"/>
					</g>
				</g>
			</g>
		</g>
	</g>
</g>
</svg>
