<?xml version="1.0" encoding="utf-8"?>
<!-- Generator: Adobe Illustrator 26.3.1, SVG Export Plug-In . SVG Version: 6.00 Build 0)  -->
<svg version="1.1" id="Layer_1" xmlns="http://www.w3.org/2000/svg" xmlns:xlink="http://www.w3.org/1999/xlink" x="0px" y="0px"
	 viewBox="0 0 242.4 268.9" style="enable-background:new 0 0 242.4 268.9;" xml:space="preserve">
<style type="text/css">
	.st0{fill:#154E9E;}
	.st1{fill:#FFFFFF;}
	.st2{fill:#DB9C1F;}
	.st3{font-family:'CiutadellaTRIAL-Md';}
	.st4{font-size:69.5865px;}
	.st5{letter-spacing:-3;}
	.st6{letter-spacing:-5;}
	.st7{font-family:'CiutadellaTRIAL-Rg';}
	.st8{fill:#606060;}
	.st9{fill:none;}
</style>
<g>
	<path class="st1" d="M30.7,0v171.7l4.8-3.7c19.1-14.8,37-24.5,54.1-29.5l1.3,1.7c0.3,0.4,0.6,0.7,0.9,1.1l-0.5,0.1l4.2,3.7l-2,0.5
		l7,3.5c1.1,0.6,2.2,1,3.3,1.2l-0.7,0.8l6.3,0.1c0.1,0,0.2,0,0.3,0c2.1,0,4-0.4,5.6-1.3c0.6,0.1,1.3,0.1,1.9-0.2l0,0.9l4.7-3.2
		c0.1-0.1,0.3-0.2,0.4-0.3c0.4-0.3,0.7-0.5,1-0.8c0.4,0.3,0.9,0.5,1.5,0.6c0.6,0.1,1.2,0.2,1.8,0.3l0.3,0.1c-0.1,0.8,0,1.6,0.3,2.4
		c0.2,0.5,0.4,1,0.7,1.5c0.7,1.4,2,2.3,3.5,2.4l-0.4,0.5l6.4-0.8c1-0.1,1.8-0.5,2.6-1.2c0.2-0.1,0.3-0.3,0.5-0.5
		c0.5-0.2,1-0.5,1.4-0.9c0.2,0,0.4-0.1,0.7-0.2c0.9-0.3,1.7-0.9,2.2-1.6c1.2-0.1,2.2-0.7,2.9-1.6c0.8-1,1-2.2,0.6-3.4
		c-0.2-0.7-0.5-1.3-0.8-1.8l-1.1,0.5c0,0,0,0,0,0l1.1-0.6l0,0c-0.4-0.7-0.9-1.1-1.2-1.3c-0.1-0.1-0.2-0.3-0.3-0.4
		c-1-1.3-2.4-2-4-1.8c-0.6,0.1-1.2,0.2-1.7,0.4c-0.2-0.1-0.4-0.2-0.6-0.3c-0.1-0.3-0.3-0.6-0.4-0.8c-0.2-0.4-0.4-0.7-0.6-1.1
		c-0.2-0.3-0.4-0.7-0.6-1c-0.1-0.2-0.2-0.5-0.2-0.9c0.8,0.1,1.6,0.2,2.5,0.3c0,0,0.1,0.1,0.1,0.1l0.1,0.1c0.9,0.7,1.9,1.2,2.9,1.5
		l0,0.3l0.9-0.1l5.9,1.3l-0.9-1.8c24.6,4.6,47.7,15.6,66.8,32l5,4.3V0H30.7z"/>
	<path class="st0" d="M122.5,131.2c36.3,0,69.5,12.3,95,34.2V3H33.3v162.6C57.9,146.5,88.9,131.2,122.5,131.2z"/>
	<path class="st1" d="M212.2,58.3V7.5h-21.5v49.3h-11.1V7.5h-21.5v50.8v21.5v48.3c7.4,1.7,14.6,4,21.5,6.7V78.3h11.1v61.4
		c7.6,3.8,14.8,7.3,21.5,12.4V79.8V58.3z"/>
	<path class="st1" d="M90.5,78.3V56.8H60.6V29h29.9V7.5H60.6H39.1V29v29.2v21.5v74.1c7.6-5,14-8.5,21.5-12.6v-63H90.5z"/>
	<path class="st1" d="M135.3,120.8c8.8,0.4,16.2-6.6,16.2-15.5V29v-8.2c0-7.4-6-13.3-13.3-13.3H130h-11.1H97.4V29v72.8h0v21.4
		c9.7-1.7,19.8-2.6,30-2.6C130,120.7,132.7,120.7,135.3,120.8z M118.9,101.8V29h8.3c1.6,0,2.8,1.3,2.8,2.8v65c0,2.7-2.2,5-5,5H118.9
		z"/>
	<g>
		<text transform="matrix(1 0 0 1 0 255.1858)"><tspan x="0" y="0" class="st1 st3 st4 st5">F</tspan><tspan x="31" y="0" class="st1 st3 st4 st6">D</tspan><tspan x="66.4" y="0" class="st1 st3 st4 st5">H </tspan><tspan x="114" y="0" class="st1 st7 st4 st5">Bank</tspan></text>
	</g>
	<path class="st2" d="M174.5,94c0-0.1-0.1-0.1-0.1-0.2c0,0,0,0-0.1,0c-0.2,2.5-1.4,4.5-2.8,6.5c1.2-2.8,1.7-5.8,1.2-8.9
		c-0.1-1.1-0.4-2.1-0.8-3.1c-1,2.6-1.9,5.1-3.2,7.6c0.1-0.5,0.3-1.1,0.4-1.6c0.4-1.9,0.6-3.7,0.4-5.6c-0.3-3.1-1.4-5.8-3.4-8.2
		c0,0-0.1-0.1-0.2-0.2c0.4,3.9,0.4,7.6-0.8,11.3c0,0.1,0,0.1-0.1,0.1c0-0.3,0-0.6,0.1-0.9c0.1-2.4,0-4.7-0.8-7
		c-0.6-1.8-1.6-3.3-3.1-4.4c-0.1-0.1-0.2-0.1-0.3-0.2c0,0.2,0.1,0.3,0.1,0.5c0.4,1.7,0.6,3.5,0.6,5.3c0.1,1.8-0.1,3.5-0.4,5.3
		c-0.4,2.3-1.3,4.4-2.7,6.3c-0.9,1.3-2.1,2.2-3.4,3.1c-1.6,1.1-3.1,2.5-4.2,4.1c-0.6,0.8-1.3,1.3-2.2,1.8c-2.1,1.2-4.1,2.4-6.2,3.6
		c-2.5,1.5-5,3.2-7.4,4.9c-1.7,1.2-3.3,2.7-4.9,4.1c-0.7,0.6-1.6,1.2-2.4,1.7c-0.2,0.1-0.8,0.8-1.4,1.3c-0.8-0.3-1.5-0.5-2.3-0.7
		c-1.1-0.3-2.1-0.8-3.1-1.5c-1.9-1.3-3.5-2.9-5.1-4.5c-2.2-2.2-4.3-4.6-6.4-7c-0.7-0.8-1.4-1.6-2.1-2.3c-0.9-0.9-2-1.5-3.2-2.1
		c-1.8-0.8-3.6-1.3-5.5-1.8c-2.4-0.7-4.8-1.4-7.2-2.3c-1-0.4-1.9-0.8-2.8-1.4c-1.2-0.8-2-1.9-2.7-3.1c-1.1-1.9-1.5-3.9-1.6-6.1
		c-0.1-1.3,0-2.6,0.2-3.8c0-0.1,0-0.1,0-0.2c-1.3,0.7-2.2,1.8-2.7,3.1c-0.5,1.3-0.5,2.7-0.3,4.1c-0.6-0.9-0.8-1.9-1.2-3
		c-0.1,0.1-0.1,0.1-0.1,0.2c-0.4,1.1-0.7,2.2-0.7,3.4c-0.1,2.2,0.5,4.3,1.2,6.4c0.1,0.3,0.2,0.5,0.3,0.8c0,0.1,0,0.2,0,0.3
		c-0.1-0.1-0.2-0.1-0.2-0.2c-0.7-0.7-1.2-1.5-1.7-2.3c-0.6-1.1-1.1-2.3-1.6-3.5c0-0.1-0.1-0.2-0.1-0.2c0,0,0,0-0.1,0
		c-0.7,2.1-0.8,4.3,0,6.4c0.8,2.1,2.1,3.8,3.9,5.2c0,0,0,0,0,0.1c-0.3-0.1-0.7-0.2-1-0.3c-0.3-0.1-0.7-0.3-1-0.4
		c-0.3-0.1-0.6-0.3-1-0.5c-0.3-0.2-0.6-0.4-1-0.5c-0.3-0.2-0.6-0.4-1-0.6c0,0.1,0,0.2,0.1,0.3c0.5,2.1,1.6,3.7,3.2,5.1
		c0.8,0.7,1.7,1.3,2.7,1.8c0.1,0,0.1,0.1,0.2,0.2c-0.1,0-0.2,0-0.3,0c-0.7-0.1-1.4,0-2.1,0.2c-0.3,0.1-0.3,0.1-0.2,0.4
		c0.8,1.3,2,2.2,3.3,2.9c0.8,0.4,1.6,0.7,2.5,1c0.1,0,0.1,0.1,0.2,0.1c-1.2,0.1-2.3,0.5-3.3,1.2c1.9,1.9,4.3,2.5,6.9,2.6
		c-1.3,0.4-2.7,0.8-3.9,1.5c1.1,1.1,2.5,1.8,4,2.2c-0.1,0-0.1,0-0.2,0c-0.7,0.1-1.3,0.5-1.8,1c-0.2,0.2-0.2,0.3,0,0.4
		c0.7,0.9,1.6,1.5,2.7,1.9c1.6,0.6,3.2,0.7,4.9,0.7c0.1,0,0.2,0,0.3,0c-0.1,0-0.1,0.1-0.2,0.1c-0.8,0.5-1.2,1.2-1.4,2.1
		c0,0.2,0,0.2,0.2,0.3c1.1,0.3,2.3,0.4,3.5,0.5c0.6,0,1.3,0.1,1.9,0.1c0.1,0,0.1,0,0.2,0.1c-0.3,0.1-0.7,0.2-1,0.3
		c-0.7,0.2-1.3,0.7-1.7,1.3c-0.1,0.2-0.1,0.3,0.1,0.4c1.1,0.5,2.2,0.8,3.4,0.8c1.5,0,3-0.2,4.4-0.7c0.1,0,0.1,0,0.3-0.1
		c-0.5,0.6-0.7,1.3-0.9,1.9c-0.1,0.3-0.1,0.6-0.1,0.8c0,0.2,0,0.3,0.2,0.3c0.9,0.1,1.8,0.1,2.6-0.1c0.8-0.2,1.6-0.5,2.5-0.9
		c0.1,0.3,0.2,0.5,0.2,0.7c0,0.3,0.2,0.3,0.4,0.3c0.8-0.1,1.7-0.1,2.5-0.1c0.2,0,0.4,0.1,0.6,0.2c0.1,0.1,0.1,0.2,0.2,0.2
		c-0.4,0.3-0.8,0.6-1,0.7c-1.8,0.9-3.7,1.7-5.7,2.4c-1.9,0.7-3.9,1.2-5.9,1.5c-1.3,0.2-2.6,0.2-4,0c-0.9-0.1-1.9-0.2-2.8-0.3
		c-0.1,0-0.2,0-0.3,0c1.3,1.7,2.9,2.8,4.9,3.5c2,0.7,4,0.6,6,0.2c0,0,0,0,0,0.1c-0.1,0.1-0.2,0.2-0.4,0.3c-1,0.6-2.2,0.9-3.3,0.8
		c-0.8,0-1.7-0.1-2.5-0.2c-0.1,0-0.2,0-0.3,0c2.4,2.1,5.1,2.8,8.2,2.3c0,0,0,0.1,0,0.1c-1.3,0.4-2.6,0.7-4,1.1
		c1.4,0.7,2.8,1.1,4.3,1.1c1.5,0,2.9-0.5,4.2-1.3c-0.2,0.7-0.4,1.4-0.9,2c2.6,0.1,4.9-0.7,6.6-2.7c0,0.1-0.1,0.2-0.1,0.3
		c-0.1,0.2-0.2,0.5-0.3,0.7c0,0.1-0.1,0.3,0,0.4c0.1,0.1,0.3,0.1,0.4,0.1c0.4-0.2,0.8-0.4,1.2-0.6c1-0.7,1.7-1.6,2.3-2.6
		c0-0.1,0.1-0.1,0.1-0.2c0.3,0.5,0.4,0.9,0.4,1.5c0.2-0.1,0.3-0.2,0.4-0.3c0.8-0.5,1.4-1.2,1.9-2c0.2-0.4,0.5-1.5,0.5-2.1
		c0.6,0.5,0.9,1.1,1.1,1.9c0.2,0.8,0.7,1.3,1.4,1.5c0.8,0.2,1.5,0.3,2.3,0.4c0.1,0,0.2,0,0.2,0c0.6,0.3,1.3,0.3,2,0.1
		c0.1,0,0.3,0,0.4,0.1c0.2,0.1,0.4,0.3,0.6,0.4c0.3,0.2,0.3,0.4,0.1,0.7c-0.1,0.2-0.3,0.5-0.5,0.7c-0.2,0.3-0.4,0.7-0.6,1
		c-0.2,0.3-0.2,0.7,0,1c0.2,0.5,0.4,0.9,0.6,1.4c0.3,0.5,0.7,0.8,1.3,0.8c0,0,0.1,0,0.1,0c0,0,0,0,0.1-0.1c-0.4-0.1-0.6-0.3-0.6-0.7
		c0-0.2,0.1-0.5,0.2-0.7c0.1-0.2,0.1-0.4,0-0.6c0-0.1,0-0.2,0-0.3c0.3-0.4,0.6-0.8,1-1.1c0.6-0.4,1.1-0.4,1.7,0.1
		c0.3,0.3,0.7,0.4,1.1,0.5c0.5,0.1,0.8,0.3,0.9,0.8c0.1,0.4,0.4,0.6,0.7,0.7c0.4,0.1,0.4,0.3,0.3,0.7c-0.1,0.1-0.2,0.3-0.3,0.4
		c0.4-0.1,0.7-0.2,1-0.4c0.3-0.2,0.4-0.6,0.5-0.9c0-0.4,0-0.7,0-1c0.3,0,0.5,0,0.8-0.1c0.2,0,0.3,0.1,0.3,0.3c0,0.2-0.1,0.3-0.2,0.5
		c0,0.1-0.1,0.2-0.1,0.2c0.5-0.1,1.1-0.7,1.1-1.3c0-0.2,0-0.5,0-0.7c0-0.5-0.3-0.9-0.6-1.3c-0.5-0.5-1.1-0.7-1.8-1
		c-0.1,0-0.2-0.1-0.3-0.2c-0.3-0.5-0.8-0.6-1.3-0.5c-0.4,0.1-0.8,0.2-1.2,0.4c-0.4,0.1-0.7,0.2-1,0c-0.6-0.3-1.2-0.7-1.7-1.1
		c-2.1-1.6-3.3-3.9-4-6.4c-0.1-0.3-0.1-0.7,0-1.1c0-0.1,0.1-0.3,0.1-0.4c0.1,0.3,0.3,0.7,0.4,1c0.6,1.6,1.3,3.2,2.4,4.6
		c0.5,0.6,1,1.1,1.8,1.3c0.7,0.1,1.4,0.1,2.1-0.1c0.2,0,0.4-0.1,0.5-0.1c0.5-0.1,1,0.4,0.9,0.9c0,0.2-0.1,0.3-0.1,0.5
		c0.2,0,0.3,0,0.4,0c0.4,0,0.7,0.2,0.9,0.5c0.1,0.1,0.2,0.1,0.3,0.2c0.8,0.4,1.7,0.8,2.5,1.2c0.3,0.1,0.5,0.4,0.7,0.6
		c0.2,0.2,0.3,0.5,0.1,0.8c-0.1,0.3-0.3,0.6-0.4,0.9c0.4,0.2,1.3-0.1,1.5-0.6c0.1-0.2,0.2-0.4,0.3-0.6c0.4-0.8,0.2-1.6-0.5-2.3
		c-0.2-0.2-0.5-0.4-0.7-0.6c0,0,0,0,0,0c0.2,0.1,0.5,0.2,0.7,0.4c0.6,0.3,1.3,0.7,2,0.8c0.4,0.1,0.6,0.6,0.3,0.9
		c-0.1,0.1-0.2,0.2-0.2,0.3c0.7,0,1.4-0.4,1.2-1.1c-0.1-0.5-0.4-0.9-0.6-1.3c-0.1-0.1-0.3-0.2-0.4-0.3c-0.2-0.1-0.4-0.3-0.5-0.4
		c-0.2-0.2-0.3-0.4-0.4-0.6c-0.3-0.4-0.7-0.6-1.1-0.5c-0.5,0.1-0.9,0.2-1.4,0.3c-0.6,0.2-1.1,0.2-1.7,0c-0.6-0.3-1.2-0.6-1.8-1
		c-0.2-0.1-0.3-0.3-0.4-0.6c-0.1-0.4-0.3-0.7-0.5-1c-0.4-0.7-0.8-1.4-1.2-2.1c-0.6-1.1-0.7-2.4-0.5-3.6c0.1-0.5-0.2-1.5-0.1-2.1
		c0,0,0.1,0,0.1-0.1c0.5-0.3,1-0.4,1.5-0.4c1.5,0.1,3.1,0.3,4.5,0.9c0.5,0.2,0.9,0.5,1.3,0.9c0.7,0.5,1.4,0.9,2.2,1.1
		c0.1,0,0.1,0,0.3,0.1c-0.5-1.1-1.2-2-1.8-3c0.1,0,0.2,0,0.2,0.1c1,0.5,1.9,0.9,2.9,1.3c0.7,0.2,0.9,0.7,0.7,1.4c0,0.1,0,0.2,0,0.3
		c0.1,0,0.2,0,0.3,0c0.2-0.2,0.5-0.5,0.7-0.8c0.1-0.1,0.1-0.2,0.1-0.3c0.6-0.9,0.4-1.8-0.2-2.6c-0.4-0.5-0.9-1-1.5-1.4
		c-0.1-0.1-0.2-0.2-0.3-0.4c-0.6-2-2.1-3.3-4.1-3.8c-0.3-0.1-0.6-0.1-1-0.2c0.8-0.1,1.6-0.2,2.3,0c1.3,0.2,2.6,0.3,3.9,0.2
		c0.4,0,0.8-0.1,1.1-0.2c0,0,0-0.1,0-0.1c-0.2-0.2-0.5-0.4-0.7-0.6c0,0,0,0,0-0.1c1.5,0,3,0.1,4.6-0.3c-0.5-0.3-0.9-0.5-1.3-0.8
		c1.2-0.1,2.3-0.2,3.4-0.3c1.1-0.1,2.2-0.3,3.3-0.7c-0.6-0.3-1.1-0.7-1.7-1c0,0,0,0,0-0.1c0.2,0,0.3,0,0.5,0c1.7,0,3.4-0.5,5-1.2
		c0.6-0.3,1.1-0.6,1.6-0.9c0.2-0.1,0.2-0.2,0.1-0.3c-0.3-0.5-0.7-0.9-1.3-1.2c0,0-0.1,0-0.2-0.1c2-0.4,3.7-1.1,5.1-2.5
		c0.6-0.6,1.1-1.3,1.6-2.1c-0.6,0.1-1.2,0.2-1.8,0.1c2.4-1.3,4.1-3.2,4.7-5.9c0,0,0,0-0.1-0.1c-0.5,0.3-1,0.6-1.5,0.9c0,0,0,0,0-0.1
		c0.1-0.1,0.1-0.2,0.2-0.2c1.4-1.4,2.6-2.9,3.5-4.6c0.9-1.8,1.5-3.6,1.7-5.6C175.4,96.6,175.1,95.3,174.5,94z"/>
</g>
</svg>
